<svg width="16" height="16" viewBox="0 0 16 16" fill="none" xmlns="http://www.w3.org/2000/svg">
<path d="M14 11.4004C14.3314 11.4004 14.5996 11.6686 14.5996 12C14.5996 12.3314 14.3314 12.5996 14 12.5996H2C1.66863 12.5996 1.40039 12.3314 1.40039 12C1.40039 11.6686 1.66863 11.4004 2 11.4004H14ZM14 7.40039C14.3314 7.40039 14.5996 7.66863 14.5996 8C14.5996 8.33137 14.3314 8.59961 14 8.59961H2C1.66863 8.59961 1.40039 8.33137 1.40039 8C1.40039 7.66863 1.66863 7.40039 2 7.40039H14ZM14 3.40039C14.3314 3.40039 14.5996 3.66863 14.5996 4C14.5996 4.33137 14.3314 4.59961 14 4.59961H2C1.66863 4.59961 1.40039 4.33137 1.40039 4C1.40039 3.66863 1.66863 3.40039 2 3.40039H14Z" fill="#411825"/>
</svg>
