<svg width="45" height="45" viewBox="0 0 45 45" fill="none" xmlns="http://www.w3.org/2000/svg">
<rect width="45" height="45" rx="22.5" fill="#411825"/>
<path d="M25.5086 16C26.6118 16 27.6291 16.4609 28.3699 17.2968C29.1011 18.1221 29.5 19.2443 29.5 20.4528C29.5 21.7069 29.048 22.8466 28.1053 24.03C27.2677 25.0816 26.0675 26.1446 24.6981 27.3587C24.2287 27.7748 23.6974 28.2455 23.1463 28.7469L23.1472 28.7479C22.9682 28.9108 22.738 29 22.5 29C22.2619 29 22.0319 28.9101 21.8528 28.7469C21.303 28.2467 20.7732 27.777 20.3046 27.3615L20.3028 27.3606L20.3019 27.3596L19.3094 26.4748C18.3548 25.6142 17.5229 24.8186 16.8947 24.03C15.952 22.8465 15.5 21.7069 15.5 20.4528C15.5 19.2443 15.8989 18.1221 16.6301 17.2968C17.3709 16.4609 18.3881 16 19.4914 16C20.3196 16 21.0797 16.2735 21.7454 16.8091C22.0206 17.0306 22.2715 17.2937 22.5 17.5914C22.7286 17.2937 22.9801 17.0306 23.2555 16.8091C23.9211 16.2736 24.6806 16 25.5086 16ZM25.5086 17.2099C24.9439 17.21 24.426 17.3957 23.9657 17.766C23.5528 18.0984 23.2619 18.5221 23.0895 18.8226C22.9647 19.04 22.7433 19.1708 22.5 19.1708C22.2567 19.1708 22.0353 19.04 21.9105 18.8226C21.7382 18.5221 21.4474 18.0984 21.0343 17.766C20.574 17.3956 20.056 17.21 19.4914 17.2099C18.7139 17.2099 18.0021 17.5316 17.4841 18.116C16.9576 18.7104 16.6621 19.5384 16.6621 20.4528C16.6621 21.4058 16.9999 22.2676 17.7895 23.2588C18.5582 24.2237 19.7056 25.2417 21.0547 26.4379L21.0583 26.4416C21.4949 26.8287 21.9861 27.2649 22.4991 27.73C23.0149 27.264 23.5067 26.8267 23.9444 26.4388C25.2939 25.2421 26.4416 24.2239 27.2105 23.2588C28 22.2676 28.3379 21.4058 28.3379 20.4528C28.3379 19.5384 28.0424 18.7104 27.5159 18.116C26.998 17.5316 26.286 17.2099 25.5086 17.2099Z" fill="white"/>
</svg>
