<svg width="15" height="15" viewBox="0 0 15 15" fill="none" xmlns="http://www.w3.org/2000/svg">
<g clip-path="url(#clip0_233_365)">
<path d="M11.132 0.499878C12.4378 0.50002 13.5 1.58265 13.5 2.9137C13.5 4.24475 12.4378 5.32738 11.132 5.32753C10.4923 5.32753 9.91313 5.06502 9.48694 4.64395L6.12182 6.76836C6.1943 6.99934 6.2359 7.24463 6.2359 7.49988C6.2359 7.75447 6.19399 7.99905 6.12182 8.22962L9.48694 10.3549C9.91311 9.93406 10.4925 9.67223 11.132 9.67223C12.4378 9.67237 13.5 10.755 13.5 12.0861C13.5 13.417 12.4378 14.4997 11.132 14.4999C9.82623 14.4999 8.76412 13.4171 8.7641 12.0861C8.7641 11.8309 8.80493 11.5854 8.87731 11.3545L5.51219 9.23101C5.08606 9.65169 4.50725 9.9137 3.86795 9.9137C2.56217 9.91364 1.50001 8.83097 1.5 7.49988C1.5 6.16889 2.56216 5.08612 3.86795 5.08605C4.50706 5.08605 5.08611 5.34751 5.51219 5.76786L8.87731 3.64433C8.80509 3.41366 8.7641 3.16853 8.7641 2.9137C8.76416 1.58262 9.82625 0.499878 11.132 0.499878ZM11.132 10.8494C10.4635 10.8494 9.9189 11.4045 9.9189 12.0861C9.91898 12.7675 10.4635 13.3218 11.132 13.3218C11.8004 13.3217 12.3442 12.7674 12.3443 12.0861C12.3443 11.4046 11.8005 10.8495 11.132 10.8494ZM3.86795 6.26323C3.19934 6.26329 2.6548 6.81842 2.6548 7.49988C2.65481 8.18133 3.19934 8.73646 3.86795 8.73653C4.53649 8.73653 5.08109 8.1814 5.0811 7.49988C5.0811 6.81835 4.53649 6.26323 3.86795 6.26323ZM11.132 1.67794C10.4635 1.67794 9.91896 2.23225 9.9189 2.9137C9.9189 3.59521 10.4635 4.15035 11.132 4.15035C11.8005 4.15021 12.3443 3.59512 12.3443 2.9137C12.3443 2.23233 11.8004 1.67808 11.132 1.67794Z" fill="#411825"/>
</g>
<defs>
<clipPath id="clip0_233_365">
<rect width="15" height="15" fill="white"/>
</clipPath>
</defs>
</svg>
