<svg width="45" height="45" viewBox="0 0 45 45" fill="none" xmlns="http://www.w3.org/2000/svg">
<rect width="45" height="45" rx="22.5" fill="#411825"/>
<path d="M22.5 29C22.3007 29 22.1085 28.9246 21.9588 28.7877C21.3932 28.2716 20.8479 27.7865 20.3669 27.3587L20.3644 27.3564C18.954 26.1019 17.736 25.0186 16.8885 23.9514C15.9412 22.7583 15.5 21.6271 15.5 20.3913C15.5 19.1907 15.8945 18.083 16.6106 17.2722C17.3353 16.4518 18.3298 16 19.411 16C20.2191 16 20.9592 16.2667 21.6107 16.7925C21.9395 17.058 22.2375 17.3828 22.5 17.7617C22.7626 17.3828 23.0605 17.058 23.3894 16.7925C24.0409 16.2667 24.781 16 25.5891 16C26.6702 16 27.6648 16.4518 28.3895 17.2722C29.1057 18.083 29.5 19.1907 29.5 20.3913C29.5 21.6271 29.0589 22.7583 28.1116 23.9513C27.2641 25.0186 26.0462 26.1018 24.636 27.3562C24.1541 27.7847 23.608 28.2706 23.0411 28.788C22.8915 28.9246 22.6992 29 22.5 29Z" fill="#D90952"/>
</svg>
