<svg width="45" height="45" viewBox="0 0 45 45" fill="none" xmlns="http://www.w3.org/2000/svg">
<rect x="0.5" y="0.5" width="44" height="44" rx="22" fill="white"/>
<rect x="0.5" y="0.5" width="44" height="44" rx="22" stroke="#411825"/>
<g clip-path="url(#clip0_233_453)">
<path d="M26.132 15.5C27.4378 15.5001 28.5 16.5828 28.5 17.9138C28.5 19.2449 27.4378 20.3275 26.132 20.3276C25.4923 20.3276 24.9131 20.0651 24.4869 19.6441L21.1218 21.7685C21.1943 21.9995 21.2359 22.2448 21.2359 22.5C21.2359 22.7546 21.194 22.9992 21.1218 23.2297L24.4869 25.355C24.9131 24.9342 25.4925 24.6724 26.132 24.6724C27.4378 24.6725 28.5 25.7551 28.5 27.0862C28.5 28.4171 27.4378 29.4999 26.132 29.5C24.8262 29.5 23.7641 28.4172 23.7641 27.0862C23.7641 26.831 23.8049 26.5856 23.8773 26.3547L20.5122 24.2311C20.0861 24.6518 19.5073 24.9138 18.868 24.9138C17.5622 24.9138 16.5 23.8311 16.5 22.5C16.5 21.169 17.5622 20.0862 18.868 20.0862C19.5071 20.0862 20.0861 20.3476 20.5122 20.768L23.8773 18.6445C23.8051 18.4138 23.7641 18.1686 23.7641 17.9138C23.7642 16.5827 24.8262 15.5 26.132 15.5ZM26.132 25.8495C25.4635 25.8495 24.9189 26.4047 24.9189 27.0862C24.919 27.7676 25.4635 28.3219 26.132 28.3219C26.8004 28.3218 27.3442 27.7675 27.3443 27.0862C27.3443 26.4048 26.8005 25.8497 26.132 25.8495ZM18.868 21.2633C18.1993 21.2634 17.6548 21.8185 17.6548 22.5C17.6548 23.1815 18.1993 23.7366 18.868 23.7367C19.5365 23.7367 20.0811 23.1815 20.0811 22.5C20.0811 21.8185 19.5365 21.2633 18.868 21.2633ZM26.132 16.6781C25.4635 16.6781 24.919 17.2324 24.9189 17.9138C24.9189 18.5953 25.4635 19.1505 26.132 19.1505C26.8005 19.1503 27.3443 18.5952 27.3443 17.9138C27.3443 17.2325 26.8004 16.6782 26.132 16.6781Z" fill="#411825"/>
</g>
<defs>
<clipPath id="clip0_233_453">
<rect width="15" height="15" fill="white" transform="translate(15 15)"/>
</clipPath>
</defs>
</svg>
