<svg width="15" height="15" viewBox="0 0 15 15" fill="none" xmlns="http://www.w3.org/2000/svg">
<path d="M10.5086 1C11.6118 1 12.6291 1.46092 13.3699 2.29677C14.1011 3.1221 14.5 4.24428 14.5 5.45279C14.5 6.70693 14.048 7.84664 13.1053 9.02998C12.2677 10.0816 11.0675 11.1446 9.6981 12.3587C9.22866 12.7748 8.69737 13.2455 8.14629 13.7469L8.14718 13.7479C7.96823 13.9108 7.738 14 7.5 14C7.26186 14 7.03187 13.9101 6.85282 13.7469C6.30299 13.2467 5.77319 12.777 5.30457 12.3615L5.30279 12.3606L5.3019 12.3596L4.30939 11.4748C3.35477 10.6142 2.52291 9.8186 1.89467 9.02998C0.95201 7.84654 0.5 6.70694 0.5 5.45279C0.500027 4.24429 0.898898 3.12209 1.63012 2.29677C2.37085 1.46092 3.3881 1 4.49138 1C5.31957 1.00001 6.07972 1.27346 6.7454 1.80909C7.02056 2.03056 7.2715 2.29374 7.5 2.5914C7.72857 2.29368 7.98014 2.03062 8.25549 1.80909C8.92107 1.27364 9.6806 1.00003 10.5086 1ZM10.5086 2.20995C9.9439 2.20998 9.42602 2.39565 8.96569 2.76597C8.55276 3.09842 8.2619 3.52208 8.08947 3.82259C7.96474 4.04 7.74335 4.1708 7.5 4.1708C7.25665 4.1708 7.03526 4.04 6.91053 3.82259C6.73822 3.52211 6.44736 3.09843 6.03431 2.76597C5.57395 2.39563 5.05603 2.20996 4.49138 2.20995C3.71394 2.20995 3.00211 2.53161 2.48415 3.11602C1.95759 3.71039 1.66211 4.53842 1.66208 5.45279C1.66208 6.40584 1.99995 7.26756 2.78954 8.25876C3.55819 9.22367 4.70559 10.2417 6.05472 11.4379L6.05828 11.4416C6.49487 11.8287 6.98611 12.2649 7.49911 12.73C8.01493 12.264 8.50674 11.8267 8.94439 11.4388C10.2939 10.2421 11.4416 9.22393 12.2105 8.25876C13 7.26755 13.3379 6.40585 13.3379 5.45279C13.3379 4.53842 13.0424 3.71039 12.5159 3.11602C11.998 2.53163 11.286 2.20995 10.5086 2.20995Z" fill="white"/>
</svg>
