<svg width="15" height="15" viewBox="0 0 15 15" fill="none" xmlns="http://www.w3.org/2000/svg">
<path d="M7.5 14C7.30069 14 7.10854 13.9246 6.95879 13.7877C6.39322 13.2716 5.84795 12.7865 5.36687 12.3587L5.36441 12.3564C3.95396 11.1019 2.73599 10.0186 1.88855 8.95137C0.941238 7.7583 0.5 6.6271 0.5 5.39134C0.5 4.19069 0.894455 3.08302 1.61063 2.27222C2.33534 1.45183 3.32976 1 4.41101 1C5.21915 1 5.95924 1.26666 6.61069 1.79252C6.93945 2.05795 7.23746 2.38281 7.5 2.76173C7.76265 2.38281 8.06055 2.05795 8.38942 1.79252C9.04086 1.26666 9.78096 1 10.5891 1C11.6702 1 12.6648 1.45183 13.3895 2.27222C14.1057 3.08302 14.5 4.19069 14.5 5.39134C14.5 6.6271 14.0589 7.7583 13.1116 8.95126C12.2641 10.0186 11.0462 11.1018 9.63602 12.3562C9.15408 12.7847 8.60796 13.2706 8.04111 13.788C7.89146 13.9246 7.6992 14 7.5 14Z" fill="#D90952"/>
</svg>
