<svg width="45" height="45" viewBox="0 0 45 45" fill="none" xmlns="http://www.w3.org/2000/svg">
<rect x="0.5" y="0.5" width="44" height="44" rx="22" fill="white"/>
<rect x="0.5" y="0.5" width="44" height="44" rx="22" stroke="#411825"/>
<g clip-path="url(#clip0_233_454)">
<path d="M15.8066 24.375C15.8066 24.0436 16.0749 23.7754 16.4062 23.7754C16.7376 23.7754 17.0059 24.0436 17.0059 24.375V27.9941H20.625C20.9564 27.9941 21.2246 28.2624 21.2246 28.5938C21.2246 28.9251 20.9564 29.1934 20.625 29.1934H16.4062C16.0749 29.1934 15.8066 28.9251 15.8066 28.5938V24.375Z" fill="#411825"/>
<path d="M27.7011 16.4511C27.9354 16.2168 28.3145 16.2168 28.5488 16.4511C28.7831 16.6854 28.7831 17.0645 28.5488 17.2988L24.7988 21.0488C24.5645 21.2831 24.1854 21.2831 23.9511 21.0488C23.7168 20.8145 23.7168 20.4354 23.9511 20.2011L27.7011 16.4511Z" fill="#411825"/>
<path d="M27.9941 20.625V17.0059H24.375C24.0436 17.0059 23.7754 16.7376 23.7754 16.4062C23.7754 16.0749 24.0436 15.8066 24.375 15.8066H28.5938C28.9251 15.8066 29.1934 16.0749 29.1934 16.4062V20.625C29.1934 20.9564 28.9251 21.2246 28.5938 21.2246C28.2624 21.2246 27.9941 20.9564 27.9941 20.625Z" fill="#411825"/>
<path d="M19.5761 24.5761C19.8104 24.3418 20.1895 24.3418 20.4238 24.5761C20.6581 24.8104 20.6581 25.1895 20.4238 25.4238L17.2988 28.5488C17.0645 28.7831 16.6854 28.7831 16.4511 28.5488C16.2168 28.3145 16.2168 27.9354 16.4511 27.7011L19.5761 24.5761Z" fill="#411825"/>
</g>
<defs>
<clipPath id="clip0_233_454">
<rect width="15" height="15" fill="white" transform="translate(15 15)"/>
</clipPath>
</defs>
</svg>
