<svg width="15" height="15" viewBox="0 0 15 15" fill="none" xmlns="http://www.w3.org/2000/svg">
<g clip-path="url(#clip0_233_369)">
<path d="M0.806641 9.37494C0.806641 9.04357 1.07488 8.77533 1.40625 8.77533C1.73762 8.77533 2.00586 9.04357 2.00586 9.37494V12.9941H5.625C5.95637 12.9941 6.22461 13.2623 6.22461 13.5937C6.22461 13.9251 5.95637 14.1933 5.625 14.1933H1.40625C1.07488 14.1933 0.806641 13.9251 0.806641 13.5937V9.37494Z" fill="#411825"/>
<path d="M12.7011 1.45117C12.9354 1.21686 13.3145 1.21686 13.5488 1.45117C13.7831 1.68549 13.7831 2.06451 13.5488 2.29883L9.79878 6.04883C9.56447 6.28314 9.18544 6.28314 8.95113 6.04883C8.71681 5.81451 8.71681 5.43549 8.95113 5.20117L12.7011 1.45117Z" fill="#411825"/>
<path d="M12.9941 5.62497V2.00583H9.375C9.04363 2.00583 8.77539 1.73759 8.77539 1.40622C8.77539 1.07485 9.04363 0.80661 9.375 0.80661H13.5938C13.9251 0.80661 14.1934 1.07485 14.1934 1.40622V5.62497C14.1934 5.95634 13.9251 6.22458 13.5938 6.22458C13.2624 6.22458 12.9941 5.95634 12.9941 5.62497Z" fill="#411825"/>
<path d="M4.57613 9.57617C4.81044 9.34186 5.18947 9.34186 5.42378 9.57617C5.6581 9.81049 5.6581 10.1895 5.42378 10.4238L2.29878 13.5488C2.06447 13.7831 1.68544 13.7831 1.45113 13.5488C1.21681 13.3145 1.21681 12.9355 1.45113 12.7012L4.57613 9.57617Z" fill="#411825"/>
</g>
<defs>
<clipPath id="clip0_233_369">
<rect width="15" height="15" fill="white"/>
</clipPath>
</defs>
</svg>
