<svg width="16" height="16" viewBox="0 0 16 16" fill="none" xmlns="http://www.w3.org/2000/svg">
<path d="M8.00046 0C10.0456 0.000102503 11.7122 1.70228 11.7122 3.79755V4.3225H14.3413C14.7026 4.3225 14.9999 4.62458 15 4.99798V13.0961C14.9999 14.699 13.7258 15.9999 12.1621 16H3.8388C2.2751 16 1.00013 14.699 1 13.0961V4.99798C1.00012 4.62473 1.29763 4.32274 1.65866 4.3225H4.28776V3.79755C4.28776 1.70222 5.95523 0 8.00046 0ZM2.31824 13.0961C2.31837 13.9496 3.00005 14.649 3.8388 14.649H12.1621C13.0008 14.649 13.6826 13.9496 13.6827 13.0961V5.67345H11.7122V6.67953C11.7121 7.05283 11.4147 7.35493 11.0536 7.35501C10.6924 7.35501 10.3951 7.05287 10.3949 6.67953V5.67345H5.606V6.67953C5.60583 7.0528 5.30843 7.35488 4.94734 7.35501C4.58615 7.35501 4.28793 7.05287 4.28776 6.67953V5.67345H2.31824V13.0961ZM8.00046 1.35096C6.67782 1.35096 5.606 2.44921 5.606 3.79755V4.3225H10.3949V3.79755C10.3949 2.44927 9.32302 1.35106 8.00046 1.35096Z" fill="#D8C29D"/>
</svg>
