<svg width="30" height="31" viewBox="0 0 30 31" fill="none" xmlns="http://www.w3.org/2000/svg">
<path d="M18 7.25C18.3978 7.25 18.7792 7.40815 19.0605 7.68945C19.3419 7.97076 19.5 8.35218 19.5 8.75V11H25.7627L25.8711 11.0039C26.1229 11.0222 26.3664 11.1041 26.5791 11.2422C26.7919 11.3804 26.9659 11.5702 27.085 11.793L27.1328 11.8896V11.8906L29.3701 16.9248L29.4258 17.0703C29.4743 17.2191 29.4997 17.375 29.5 17.5322V21C29.5 21.197 29.4611 21.3922 29.3857 21.5742C29.3104 21.7561 29.1998 21.9213 29.0605 22.0605C28.9213 22.1998 28.7561 22.3104 28.5742 22.3857C28.3922 22.4611 28.197 22.5 28 22.5H25.6611C25.5231 23.0812 25.2272 23.6185 24.7979 24.0479C24.1884 24.6573 23.362 25 22.5 25C21.638 25 20.8116 24.6573 20.2021 24.0479C19.7727 23.6184 19.4759 23.0813 19.3379 22.5H13.1611C13.0231 23.0812 12.7272 23.6185 12.2979 24.0479C11.6884 24.6573 10.862 25 10 25C9.13805 25 8.31164 24.6573 7.70215 24.0479C7.27274 23.6184 6.9759 23.0813 6.83789 22.5H4.5C4.30302 22.5 4.10777 22.4611 3.92578 22.3857C3.74387 22.3104 3.57869 22.1998 3.43945 22.0605C3.30021 21.9213 3.18964 21.7561 3.11426 21.5742C3.03888 21.3922 3 21.197 3 21V14.875C3 14.4608 3.33579 14.125 3.75 14.125C4.16421 14.125 4.5 14.4608 4.5 14.875V21H6.83887C6.97688 20.4188 7.27279 19.8815 7.70215 19.4521C8.31164 18.8427 9.13805 18.5 10 18.5C10.862 18.5 11.6884 18.8427 12.2979 19.4521C12.7272 19.8815 13.0231 20.4188 13.1611 21H18V8.75H1.25C0.835786 8.75 0.5 8.41421 0.5 8C0.5 7.58579 0.835786 7.25 1.25 7.25H18ZM10 20C9.53587 20 9.09088 20.1845 8.7627 20.5127C8.43451 20.8409 8.25 21.2859 8.25 21.75L8.25879 21.9229C8.29855 22.3235 8.47551 22.7001 8.7627 22.9873C9.09088 23.3155 9.53587 23.5 10 23.5C10.4641 23.5 10.9091 23.3155 11.2373 22.9873C11.5655 22.6591 11.75 22.2141 11.75 21.75C11.75 21.2859 11.5655 20.8409 11.2373 20.5127C10.9091 20.1845 10.4641 20 10 20ZM22.5 20C22.0359 20 21.5909 20.1845 21.2627 20.5127C20.9345 20.8409 20.75 21.2859 20.75 21.75L20.7588 21.9229C20.7985 22.3235 20.9755 22.7001 21.2627 22.9873C21.5909 23.3155 22.0359 23.5 22.5 23.5C22.9641 23.5 23.4091 23.3155 23.7373 22.9873C24.0655 22.6591 24.25 22.2141 24.25 21.75C24.25 21.2859 24.0655 20.8409 23.7373 20.5127C23.4091 20.1845 22.9641 20 22.5 20ZM19.5 20.5C19.6618 20.1119 19.8991 19.7552 20.2021 19.4521C20.8116 18.8427 21.638 18.5 22.5 18.5C23.362 18.5 24.1884 18.8427 24.7979 19.4521C25.2272 19.8815 25.5231 20.4188 25.6611 21H28V17.5342L25.7617 12.5H19.5V20.5ZM7.5 11C7.91421 11 8.25 11.3358 8.25 11.75C8.25 12.1642 7.91421 12.5 7.5 12.5H2.5C2.08579 12.5 1.75 12.1642 1.75 11.75C1.75 11.3358 2.08579 11 2.5 11H7.5Z" fill="#D8C29D"/>
</svg>
