<svg width="30" height="31" viewBox="0 0 30 31" fill="none" xmlns="http://www.w3.org/2000/svg">
<path d="M26.4375 11.1807C26.4375 10.77 26.3682 10.369 26.2383 9.99121L15.75 15.9375V27.8018C16.1572 27.7219 16.5504 27.5776 16.9131 27.3721L24.5352 23.0508L24.5371 23.0498C25.1152 22.7242 25.5953 22.2536 25.9287 21.6865C26.262 21.1197 26.437 20.476 26.4375 19.8213V11.1807ZM10.7031 12.2041L14.999 14.6387L25.4727 8.70117C25.259 8.46584 25.0161 8.25692 24.748 8.08105L24.5352 7.95117L21.1025 6.00488L10.7031 12.2041ZM15 3.125C14.3286 3.125 13.6694 3.29896 13.0879 3.62891L5.46484 7.95117C5.11152 8.15099 4.7937 8.40467 4.52441 8.70117L9.20117 11.3525L19.6016 5.15332L16.9131 3.62891C16.3316 3.29896 15.6714 3.125 15 3.125ZM3.5625 19.8213C3.56255 21.1497 4.28349 22.3814 5.46484 23.0508L13.0869 27.3721C13.4496 27.5776 13.8428 27.7219 14.25 27.8018V15.9375L3.75977 9.99121C3.629 10.3727 3.56239 10.7749 3.5625 11.1807V19.8213ZM27.9375 19.8213L27.9258 20.167C27.8717 20.9691 27.6313 21.7495 27.2217 22.4463C26.7536 23.2424 26.0804 23.8998 25.2734 24.3545L25.2744 24.3555L17.6523 28.6777C16.9453 29.0783 16.1568 29.3124 15.3477 29.3643L15 29.375C14.0701 29.3755 13.1556 29.1355 12.3477 28.6777L4.72559 24.3555C3.08239 23.4244 2.06255 21.6993 2.0625 19.8213V11.1807C2.06226 10.259 2.30949 9.35328 2.77734 8.55762C3.24655 7.76124 3.91864 7.10184 4.72559 6.64551L12.3477 2.32422C13.1555 1.86588 14.0698 1.625 15 1.625C15.9302 1.625 16.8445 1.86588 17.6523 2.32422L25.2734 6.64551C26.08 7.10216 26.7529 7.76216 27.2217 8.55859C27.6822 9.34094 27.9375 10.2424 27.9375 11.1807V19.8213Z" fill="#D8C29D"/>
</svg>
