<svg width="30" height="31" viewBox="0 0 30 31" fill="none" xmlns="http://www.w3.org/2000/svg">
<path d="M3.01562 12.7918V24.9792C3.01563 25.6975 3.30097 26.3864 3.80887 26.8943C4.31678 27.4022 5.00566 27.6876 5.72395 27.6876H24.6822C25.4005 27.6876 26.0894 27.4022 26.5973 26.8943C27.1052 26.3864 27.3905 25.6975 27.3905 24.9792V12.7918" stroke="#D8C29D" stroke-width="1.5"/>
<path d="M19.039 27.6875V19.5625C19.039 18.8442 18.7537 18.1553 18.2458 17.6474C17.7379 17.1395 17.049 16.8542 16.3307 16.8542H13.6224C12.9041 16.8542 12.2152 17.1395 11.7073 17.6474C11.1994 18.1553 10.9141 18.8442 10.9141 19.5625V27.6875" stroke="#D8C29D" stroke-width="1.5" stroke-miterlimit="16"/>
<path d="M28.498 11.9304L26.204 3.90156C26.1555 3.73181 26.0529 3.5825 25.912 3.47622C25.771 3.36993 25.5992 3.31246 25.4227 3.3125H19.9424L20.5856 11.0366C20.5956 11.1608 20.6349 11.2808 20.7003 11.3867C20.7658 11.4927 20.8555 11.5816 20.9621 11.646C21.4902 11.9615 22.5221 12.5438 23.3278 12.7916C24.7036 13.2155 26.7132 13.0625 27.8588 12.9216C27.9702 12.9072 28.0771 12.8687 28.172 12.8087C28.267 12.7488 28.3477 12.6688 28.4086 12.5744C28.4694 12.48 28.5089 12.3735 28.5244 12.2623C28.5398 12.151 28.5308 12.0378 28.498 11.9304Z" stroke="#D8C29D" stroke-width="1.5"/>
<path d="M17.9118 12.7916C18.6809 12.5547 19.6559 12.0143 20.2003 11.6921C20.327 11.6163 20.4297 11.5064 20.4968 11.3749C20.5638 11.2434 20.5925 11.0956 20.5795 10.9486L19.943 3.3125H10.4639L9.82741 10.9486C9.8141 11.0959 9.84263 11.2439 9.9097 11.3756C9.97678 11.5074 10.0797 11.6175 10.2066 11.6934C10.7509 12.0143 11.7259 12.5547 12.4951 12.7916C14.5169 13.4145 15.89 13.4145 17.9118 12.7916Z" stroke="#D8C29D" stroke-width="1.5"/>
<path d="M4.20191 3.90156L1.90796 11.9317C1.87558 12.039 1.86692 12.1519 1.88259 12.2629C1.89826 12.3738 1.93787 12.4799 1.99869 12.574C2.0595 12.668 2.14006 12.7477 2.23477 12.8075C2.32947 12.8673 2.43606 12.9058 2.54712 12.9203C3.69139 13.0625 5.70232 13.2141 7.07815 12.7916C7.88387 12.5438 8.9171 11.9615 9.44387 11.6474C9.55061 11.5828 9.64044 11.4937 9.7059 11.3875C9.77137 11.2813 9.81059 11.161 9.82032 11.0366L10.4636 3.3125H4.98326C4.8067 3.31246 4.63494 3.36993 4.49396 3.47622C4.35298 3.5825 4.25046 3.73181 4.20191 3.90156Z" stroke="#D8C29D" stroke-width="1.5"/>
<path fill-rule="evenodd" clip-rule="evenodd" d="M25.4227 2.5625C25.762 2.5625 26.0922 2.67282 26.3631 2.87695C26.6005 3.05589 26.7816 3.29857 26.8856 3.5752L26.9247 3.69531L29.2186 11.7246C29.2801 11.9324 29.2972 12.1505 29.2674 12.3652C29.237 12.5844 29.1588 12.7945 29.0389 12.9805C28.9189 13.1665 28.7593 13.3242 28.5721 13.4424C28.4385 13.5268 28.2927 13.5885 28.1405 13.6279V24.9795C28.1404 25.8965 27.7762 26.7763 27.1278 27.4248C26.4794 28.0732 25.5995 28.4374 24.6825 28.4375H5.72349C4.80648 28.4374 3.92665 28.0732 3.27818 27.4248C2.62977 26.7763 2.26556 25.8965 2.26548 24.9795V13.627C2.11327 13.5875 1.96734 13.5257 1.83384 13.4414C1.6474 13.3236 1.48879 13.1666 1.369 12.9814C1.24916 12.7961 1.17043 12.5867 1.1395 12.3682C1.10911 12.153 1.127 11.9339 1.18833 11.7256H1.18638L3.48032 3.69531L3.52036 3.5752C3.62432 3.29866 3.80459 3.05586 4.04185 2.87695C4.31294 2.67261 4.64377 2.56243 4.98325 2.5625H25.4227ZM20.5848 12.3359L20.5819 12.3379C20.0379 12.6599 18.9952 13.2429 18.1327 13.5088C17.0754 13.8345 16.1487 14.0087 15.203 14.0088C14.2574 14.0088 13.3313 13.8344 12.2743 13.5088C11.4118 13.2431 10.3679 12.6599 9.82505 12.3398L9.82115 12.3369C9.80954 12.33 9.79836 12.3217 9.78697 12.3145C9.24871 12.6338 8.17834 13.2382 7.29868 13.5088C6.5052 13.7524 5.57043 13.8203 4.72349 13.8174C4.39517 13.8162 4.07222 13.8015 3.76548 13.7832V24.9795C3.76556 25.4987 3.97162 25.9971 4.33872 26.3643C4.70589 26.7313 5.2043 26.9374 5.72349 26.9375H10.1639V19.5625C10.164 18.6456 10.5283 17.7656 11.1766 17.1172C11.825 16.4688 12.7049 16.1047 13.6219 16.1045H16.3309C17.248 16.1046 18.1277 16.4687 18.7762 17.1172C19.4247 17.7657 19.7888 18.6454 19.7889 19.5625V26.9375H24.6825C25.2016 26.9374 25.7001 26.7314 26.0672 26.3643C26.4343 25.9971 26.6404 25.4987 26.6405 24.9795V13.7842C26.3338 13.8026 26.0109 13.8172 25.6825 13.8184C24.8356 13.8213 23.9013 13.7533 23.1073 13.5088C22.2274 13.2381 21.1576 12.6342 20.618 12.3135C20.6068 12.3206 20.5963 12.3291 20.5848 12.3359ZM13.6219 17.6045C13.1028 17.6047 12.6043 17.8106 12.2372 18.1777C11.8702 18.5449 11.664 19.0434 11.6639 19.5625V26.9375H18.2889V19.5625C18.2888 19.0433 18.0828 18.5449 17.7157 18.1777C17.3485 17.8106 16.8502 17.6046 16.3309 17.6045H13.6219ZM10.5751 11.0107L10.5741 11.0166C10.5736 11.023 10.5751 11.0294 10.578 11.0352C10.5806 11.0403 10.585 11.0446 10.5897 11.0479C11.1359 11.3698 12.041 11.8673 12.7157 12.0752C13.6797 12.3722 14.4516 12.5088 15.203 12.5088C15.9543 12.5087 16.7264 12.3721 17.6903 12.0752C18.3646 11.8673 19.2705 11.3703 19.8153 11.0479C19.8207 11.0445 19.8261 11.0399 19.829 11.0342C19.8313 11.0295 19.831 11.0239 19.8309 11.0186L19.2518 4.0625H11.1532L10.5751 11.0107ZM21.327 10.8867C21.3276 10.8935 21.3265 10.9004 21.327 10.9072L21.3329 10.9746V10.9766C21.3333 10.9821 21.3358 10.9874 21.3387 10.9922C21.3417 10.9969 21.3457 11.001 21.3504 11.0039C21.8821 11.3214 22.84 11.8574 23.5477 12.0752C24.1293 12.2543 24.8888 12.3211 25.6766 12.3184C26.4527 12.3156 27.2084 12.2449 27.7635 12.1768C27.7662 12.1763 27.769 12.1762 27.7713 12.1748C27.774 12.1731 27.7765 12.1706 27.7782 12.168C27.7799 12.1653 27.7807 12.1623 27.7811 12.1592C27.7815 12.156 27.782 12.1525 27.7811 12.1494L27.7762 12.1367L25.4823 4.10742C25.4784 4.0951 25.4711 4.08305 25.4608 4.0752C25.45 4.06707 25.4362 4.0625 25.4227 4.0625H20.7577L21.327 10.8867ZM4.94517 4.0752C4.9345 4.08329 4.92647 4.09457 4.92271 4.10742L2.62876 12.1377L2.62583 12.1484C2.62492 12.1515 2.62441 12.1551 2.62486 12.1582C2.62533 12.1613 2.62708 12.1644 2.62876 12.167C2.63042 12.1695 2.63212 12.1722 2.63462 12.1738C2.63657 12.175 2.63926 12.1752 2.64146 12.1758C3.19522 12.2445 3.95143 12.3146 4.72837 12.3174C5.41802 12.3198 6.0857 12.2693 6.63169 12.1367L6.85825 12.0742C7.5663 11.8562 8.5263 11.32 9.0565 11.0039C9.06055 11.0012 9.06464 10.9983 9.06724 10.9941C9.07009 10.9895 9.07163 10.984 9.07212 10.9785L9.0731 10.9746L9.07603 10.9287C9.07697 10.9128 9.07849 10.8968 9.07993 10.8809L9.64829 4.0625H4.98325C4.96971 4.0625 4.956 4.06706 4.94517 4.0752Z" fill="#D8C29D"/>
</svg>
