<svg width="16" height="17" viewBox="0 0 16 17" fill="none" xmlns="http://www.w3.org/2000/svg">
<path d="M13.2493 2.59961C13.3887 2.59962 13.5249 2.64854 13.6526 2.73828C13.7873 2.8405 13.8743 2.9894 13.8948 3.15137C13.9152 3.31323 13.8687 3.47678 13.7639 3.60645L10.1721 8.0332L10.1497 8.06055V14.6895L10.1507 14.7031C10.1732 14.866 10.1264 15.0373 10.0169 15.1631L9.96316 15.2168C9.90324 15.2746 9.83107 15.321 9.75222 15.3525C9.67349 15.3839 9.58863 15.4004 9.5032 15.4004C9.41773 15.4004 9.33294 15.384 9.25418 15.3525C9.17537 15.321 9.10411 15.2746 9.04422 15.2168L6.03738 12.3213L6.0364 12.3203L5.9866 12.2676C5.94044 12.2127 5.90435 12.1506 5.88015 12.084C5.84786 11.995 5.8378 11.9 5.84988 11.8066V8.06055L5.8284 8.0332L2.23562 3.60645C2.13125 3.47689 2.08439 3.31296 2.10476 3.15137C2.12513 2.99027 2.21055 2.84241 2.34402 2.74023C2.4725 2.64916 2.60984 2.59971 2.75027 2.59961H13.2493ZM4.07058 3.84473L7.14969 7.63281V11.627L7.18094 11.6562L8.68094 13.1006L8.84988 13.2637V7.62598L11.93 3.84473H4.07058Z" fill="#52363F"/>
</svg>
