<svg width="16" height="17" viewBox="0 0 16 17" fill="none" xmlns="http://www.w3.org/2000/svg">
<g clip-path="url(#clip0_2192_3786)">
<path d="M7.5 1C4.4673 1 2 3.36566 2 6.27344C2 7.25588 2.28383 8.21465 2.821 9.04645L7.18693 15.7923C7.27056 15.9215 7.4179 16 7.57636 16C7.57758 16 7.57877 16 7.57999 16C7.73983 15.9988 7.88748 15.9179 7.96958 15.7864L12.2242 8.9752C12.7318 8.16098 13 7.22673 13 6.27344C13 3.36566 10.5327 1 7.5 1ZM11.4376 8.52396L7.56942 14.7164L3.6001 8.58338C3.15298 7.89104 2.91056 7.09229 2.91056 6.27344C2.91056 3.85029 4.97275 1.87305 7.5 1.87305C10.0273 1.87305 12.0864 3.85029 12.0864 6.27344C12.0864 7.068 11.8599 7.84633 11.4376 8.52396Z" fill="#D8C29D" stroke="#D8C29D" stroke-width="0.2"/>
<path d="M7.5 3.5C6.1215 3.5 5 4.6215 5 6C5 7.36969 6.10325 8.5 7.5 8.5C8.91397 8.5 10 7.35464 10 6C10 4.6215 8.8785 3.5 7.5 3.5ZM7.5 7.67222C6.57619 7.67222 5.82778 6.92131 5.82778 6C5.82778 5.081 6.581 4.32778 7.5 4.32778C8.419 4.32778 9.16944 5.081 9.16944 6C9.16944 6.90786 8.43844 7.67222 7.5 7.67222Z" fill="#D8C29D" stroke="#D8C29D" stroke-width="0.2"/>
</g>
<defs>
<clipPath id="clip0_2192_3786">
<rect width="16" height="16" fill="white" transform="translate(0 0.5)"/>
</clipPath>
</defs>
</svg>
