<svg width="16" height="17" viewBox="0 0 16 17" fill="none" xmlns="http://www.w3.org/2000/svg">
<g clip-path="url(#clip0_2202_3256)">
<path d="M7.5 0.999969C4.4673 0.999969 2 3.36563 2 6.27341C2 7.25585 2.28383 8.21462 2.821 9.04642L7.18693 15.7922C7.27056 15.9215 7.4179 16 7.57636 16C7.57758 16 7.57877 16 7.57999 16C7.73983 15.9988 7.88748 15.9178 7.96958 15.7863L12.2242 8.97516C12.7318 8.16095 13 7.2267 13 6.27341C13 3.36563 10.5327 0.999969 7.5 0.999969ZM11.4376 8.52393L7.56942 14.7164L3.6001 8.58335C3.15298 7.89101 2.91056 7.09225 2.91056 6.27341C2.91056 3.85026 4.97275 1.87302 7.5 1.87302C10.0273 1.87302 12.0864 3.85026 12.0864 6.27341C12.0864 7.06797 11.8599 7.8463 11.4376 8.52393Z" fill="#B07A1E" stroke="#B07A1E" stroke-width="0.2"/>
<path d="M7.5 3.49997C6.1215 3.49997 5 4.62147 5 5.99997C5 7.36966 6.10325 8.49997 7.5 8.49997C8.91397 8.49997 10 7.35461 10 5.99997C10 4.62147 8.8785 3.49997 7.5 3.49997ZM7.5 7.67219C6.57619 7.67219 5.82778 6.92128 5.82778 5.99997C5.82778 5.08097 6.581 4.32775 7.5 4.32775C8.419 4.32775 9.16944 5.08097 9.16944 5.99997C9.16944 6.90783 8.43844 7.67219 7.5 7.67219Z" fill="#B07A1E" stroke="#B07A1E" stroke-width="0.2"/>
</g>
<defs>
<clipPath id="clip0_2202_3256">
<rect width="16" height="16" fill="white" transform="translate(0 0.5)"/>
</clipPath>
</defs>
</svg>
