<svg width="16" height="17" viewBox="0 0 16 17" fill="none" xmlns="http://www.w3.org/2000/svg">
<path d="M14.1817 3.5H1.81837C1.09291 3.5 0.5 4.09031 0.5 4.81837V12.7286C0.5 13.4569 1.09329 14.0469 1.81837 14.0469H14.1817C14.9072 14.0469 15.5001 13.4566 15.5001 12.7286V4.81837C15.5001 4.09013 14.9069 3.5 14.1817 3.5ZM13.9793 4.37891C13.553 4.80656 8.54629 9.82963 8.3406 10.036C8.1688 10.2083 7.83139 10.2084 7.6595 10.036L2.02081 4.37891H13.9793ZM1.37891 12.567V4.97994L5.16014 8.77347L1.37891 12.567ZM2.02081 13.168L5.78062 9.39598L7.03703 10.6565C7.55189 11.173 8.44841 11.1728 8.9631 10.6565L10.2195 9.39601L13.9793 13.168H2.02081ZM14.6212 12.567L10.84 8.77347L14.6212 4.97994V12.567Z" fill="#D8C29D" stroke="#D8C29D" stroke-width="0.1"/>
</svg>
