<svg width="16" height="17" viewBox="0 0 16 17" fill="none" xmlns="http://www.w3.org/2000/svg">
<path d="M14.1817 3.50003H1.81837C1.09291 3.50003 0.5 4.09034 0.5 4.8184V12.7286C0.5 13.4569 1.09329 14.047 1.81837 14.047H14.1817C14.9072 14.047 15.5001 13.4567 15.5001 12.7286V4.8184C15.5001 4.09016 14.9069 3.50003 14.1817 3.50003ZM13.9793 4.37894C13.553 4.80659 8.54629 9.82966 8.3406 10.036C8.1688 10.2084 7.83139 10.2085 7.6595 10.036L2.02081 4.37894H13.9793ZM1.37891 12.567V4.97997L5.16014 8.7735L1.37891 12.567ZM2.02081 13.1681L5.78062 9.39601L7.03703 10.6565C7.55189 11.1731 8.44841 11.1728 8.9631 10.6565L10.2195 9.39604L13.9793 13.1681H2.02081ZM14.6212 12.567L10.84 8.7735L14.6212 4.97997V12.567Z" fill="#B07A1E" stroke="#B07A1E" stroke-width="0.1"/>
</svg>
