<svg width="30" height="30" viewBox="0 0 30 30" fill="none" xmlns="http://www.w3.org/2000/svg">
<path d="M26.9492 8.25C26.9492 7.44919 26.2998 6.7998 25.499 6.7998H5.24902C4.44821 6.7998 3.79883 7.44919 3.79883 8.25V21.75C3.79883 22.5508 4.44821 23.2002 5.24902 23.2002H25.499C26.2998 23.2002 26.9492 22.5508 26.9492 21.75V8.25ZM28.5488 21.75C28.5488 23.4345 27.1835 24.7998 25.499 24.7998H5.24902C3.56455 24.7998 2.19922 23.4345 2.19922 21.75V8.25C2.19922 6.56553 3.56455 5.2002 5.24902 5.2002H25.499C27.1835 5.2002 28.5488 6.56553 28.5488 8.25V21.75Z" fill="#D8C29D"/>
<path d="M9.74902 18.7002C10.1909 18.7002 10.5488 19.0582 10.5488 19.5C10.5488 19.9418 10.1909 20.2998 9.74902 20.2998H7.49902C7.0572 20.2998 6.69922 19.9418 6.69922 19.5C6.69922 19.0582 7.0572 18.7002 7.49902 18.7002H9.74902ZM18.749 18.7002C19.1909 18.7002 19.5488 19.0582 19.5488 19.5C19.5488 19.9418 19.1909 20.2998 18.749 20.2998H13.124C12.6822 20.2998 12.3242 19.9418 12.3242 19.5C12.3242 19.0582 12.6822 18.7002 13.124 18.7002H18.749ZM27.749 10.8252C28.1909 10.8252 28.5488 11.1832 28.5488 11.625C28.5488 12.0668 28.1909 12.4248 27.749 12.4248H2.99902C2.5572 12.4248 2.19922 12.0668 2.19922 11.625C2.19922 11.1832 2.5572 10.8252 2.99902 10.8252H27.749Z" fill="#D8C29D"/>
</svg>
