<svg width="30" height="30" viewBox="0 0 30 30" fill="none" xmlns="http://www.w3.org/2000/svg">
<path d="M25.4492 11.75C25.4492 10.5418 24.4572 9.5498 23.249 9.5498H5.24902C4.86585 9.5498 4.54883 9.86683 4.54883 10.25V23.25C4.54883 24.4582 5.54085 25.4502 6.74902 25.4502H23.249C24.4572 25.4502 25.4492 24.4582 25.4492 23.25V22.0498H18.3916C16.8203 22.0498 15.4492 20.8481 15.4492 19.25V15.75C15.4492 14.1522 16.8188 12.9502 18.3916 12.9502H25.4492V11.75ZM20.0117 16.7002C20.4535 16.7003 20.8115 17.0582 20.8115 17.5C20.8115 17.9418 20.4535 18.2997 20.0117 18.2998H19.999C19.5572 18.2998 19.1992 17.9418 19.1992 17.5C19.1992 17.0582 19.5572 16.7002 19.999 16.7002H20.0117ZM17.0488 19.25C17.0488 19.8619 17.5979 20.4502 18.3916 20.4502H25.4492V14.5498H18.3916C17.5969 14.5498 17.0488 15.1378 17.0488 15.75V19.25ZM22.9492 6.72461C22.949 5.56222 21.9578 4.55946 20.6309 4.5498L5.69043 5.79688C5.66833 5.79872 5.6462 5.7998 5.62402 5.7998C5.02835 5.7998 4.54883 6.27933 4.54883 6.875C4.54883 7.47067 5.02835 7.9502 5.62402 7.9502H22.9492V6.72461ZM24.5488 8.17969C26.0045 8.7129 27.0488 10.1142 27.0488 11.75V23.25C27.0488 25.3418 25.3409 27.0498 23.249 27.0498H6.74902C4.6572 27.0498 2.94922 25.3418 2.94922 23.25V6.875C2.94922 5.41789 4.1091 4.2383 5.55762 4.20312L20.5449 2.95312C20.567 2.95129 20.5892 2.9502 20.6113 2.9502C22.7495 2.9502 24.5486 4.59299 24.5488 6.72461V8.17969Z" fill="#D8C29D"/>
</svg>
