<svg width="16" height="17" viewBox="0 0 16 17" fill="none" xmlns="http://www.w3.org/2000/svg">
<g clip-path="url(#clip0_2202_54)">
<path d="M3.53968 10.971C5.02478 12.7395 6.81251 14.132 8.85295 15.1173C9.62982 15.484 10.6688 15.9192 11.8263 15.9938C11.898 15.9969 11.9667 16 12.0384 16C12.8153 16 13.4393 15.7327 13.9478 15.1825C13.9509 15.1794 13.9572 15.1732 13.9603 15.167C14.1413 14.9494 14.3472 14.7536 14.5625 14.5453C14.7091 14.4055 14.8588 14.2594 15.0024 14.1102C15.6669 13.4202 15.6669 12.5437 14.9961 11.8754L13.121 10.0074C12.8028 9.67796 12.4222 9.50391 12.0228 9.50391C11.6235 9.50391 11.2397 9.67796 10.9121 10.0043L9.79517 11.117C9.69222 11.058 9.58614 11.0051 9.4863 10.9554C9.3615 10.8933 9.24606 10.8342 9.14311 10.7689C8.126 10.1255 7.2025 9.28633 6.31955 8.2078C5.8734 7.64522 5.57389 7.17278 5.36485 6.69102C5.65813 6.42682 5.93268 6.1502 6.19788 5.87979C6.29148 5.78343 6.38819 5.68708 6.48491 5.59073C6.82187 5.25505 7.00282 4.86653 7.00282 4.47179C7.00282 4.07705 6.82499 3.68853 6.48491 3.35285L5.55517 2.42662C5.44597 2.31783 5.34301 2.21215 5.23693 2.10337C5.03102 1.89201 4.81574 1.67444 4.60358 1.47863C4.28223 1.1647 3.90472 0.999969 3.50536 0.999969C3.10913 0.999969 2.7285 1.1647 2.39466 1.48173L1.2278 2.64419C0.803489 3.0669 0.563254 3.57975 0.513334 4.1734C0.454055 4.91626 0.591333 5.70573 0.947007 6.65994C1.493 8.13631 2.31666 9.50701 3.53968 10.971ZM1.2746 4.23868C1.31204 3.82529 1.47116 3.48028 1.77067 3.1819L2.93129 2.02566C3.11225 1.85161 3.31193 1.76147 3.50536 1.76147C3.69568 1.76147 3.88912 1.85161 4.06695 2.03188C4.27599 2.22459 4.47255 2.42662 4.6847 2.64108C4.79078 2.74987 4.89998 2.85865 5.00918 2.97055L5.93892 3.89678C6.13236 4.08948 6.2322 4.2853 6.2322 4.47801C6.2322 4.67071 6.13236 4.86653 5.93892 5.05923C5.8422 5.15559 5.74548 5.25505 5.64877 5.3514C5.35861 5.64357 5.08718 5.92019 4.78766 6.18439C4.78142 6.1906 4.7783 6.19371 4.77206 6.19993C4.51311 6.45791 4.55367 6.70345 4.61606 6.88994C4.61918 6.89926 4.6223 6.90548 4.62542 6.91481C4.86566 7.48982 5.19949 8.03685 5.72052 8.68957C6.65651 9.83959 7.64241 10.7316 8.72815 11.4185C8.86231 11.5056 9.00583 11.5739 9.13999 11.6423C9.26478 11.7045 9.38022 11.7635 9.48318 11.8288C9.49566 11.835 9.50502 11.8412 9.5175 11.8475C9.62046 11.9003 9.7203 11.9252 9.82013 11.9252C10.0697 11.9252 10.232 11.7667 10.285 11.7138L11.4519 10.5514C11.6328 10.3711 11.8294 10.2747 12.0228 10.2747C12.2599 10.2747 12.4534 10.4208 12.575 10.5514L14.4564 12.4225C14.8308 12.7955 14.8276 13.1995 14.447 13.5943C14.316 13.7341 14.1787 13.8678 14.0321 14.0076C13.8137 14.219 13.5859 14.4366 13.38 14.6821C13.0212 15.0675 12.5938 15.2478 12.0415 15.2478C11.9885 15.2478 11.9323 15.2447 11.8793 15.2416C10.856 15.1763 9.90437 14.7785 9.1899 14.4397C7.2493 13.5041 5.54581 12.1769 4.13247 10.4923C2.96873 9.09674 2.18563 7.79752 1.66771 6.40507C1.34636 5.55032 1.22468 4.86342 1.2746 4.23868Z" fill="#B07A1E" stroke="#B07A1E" stroke-width="0.2"/>
</g>
<defs>
<clipPath id="clip0_2202_54">
<rect width="16" height="16" fill="white" transform="translate(0 0.5)"/>
</clipPath>
</defs>
</svg>
