<svg width="60" height="60" viewBox="0 0 60 60" fill="none" xmlns="http://www.w3.org/2000/svg">
<path d="M5.35478 17.9074C5.44201 18.0874 5.51645 18.2781 5.6188 18.4461C6.00494 19.0782 6.38875 19.7116 6.79583 20.3263C6.96564 20.5823 7.16452 20.837 7.39714 21.0091C7.84143 21.3384 8.31247 21.6264 8.78584 21.8985C9.66629 22.4025 10.5537 22.8892 11.4423 23.3719C12.6251 24.0147 13.815 24.6374 14.9943 25.2881C15.7294 25.6935 16.4563 26.1215 17.1728 26.5696C17.4182 26.7229 17.6252 26.9616 17.8415 27.171C17.9904 27.3136 18.1253 27.4763 18.2695 27.6257C18.7394 28.1137 19.2128 28.5951 19.6769 29.0898C19.799 29.2205 19.8862 29.3925 20.0002 29.5339C20.3421 29.9632 20.7376 30.4513 20.9795 30.7353C21.1854 30.9767 22.0484 31.9954 22.3031 33.3942C22.395 33.8969 22.3612 34.3316 22.2949 35.2011C22.2519 35.7718 22.1391 36.7999 21.7913 38.0707C21.504 39.1241 21.0051 40.0428 20.5038 40.9576C20.056 41.7723 19.5733 42.5631 18.9813 43.2631C18.1974 44.1912 17.4798 45.1953 16.6796 46.1047C15.898 46.9942 15.0548 47.8129 14.2244 48.645C13.7952 49.0744 13.3451 49.4811 12.8845 49.8678C12.2669 50.3838 11.6168 50.8492 11.005 51.3732C9.78609 52.4173 8.37528 53.0334 7.02495 53.7868C6.64114 54.0001 6.26779 54.2402 5.89328 54.4762C5.82699 54.5175 5.76302 54.5855 5.7258 54.6589C5.69091 54.7269 5.66183 54.8402 5.68858 54.8962C5.71766 54.9562 5.81652 55.0002 5.88398 55.0002C5.97005 54.9989 6.05844 54.9496 6.14218 54.9136C6.2864 54.8496 6.4283 54.7762 6.57368 54.7122C7.14126 54.4589 7.72512 54.2468 8.27409 53.9481C9.30341 53.3868 10.3141 52.78 11.3283 52.184C11.6738 51.9813 12.0262 51.7839 12.3448 51.5346C12.9648 51.0492 13.6149 50.6238 14.2186 50.1038C14.8175 49.5877 15.3991 49.0437 16.0108 48.5463C16.4656 48.1756 16.8773 47.7542 17.2786 47.3062C17.966 46.5394 18.7278 45.8634 19.4221 45.1046C20.0967 44.3672 20.7097 43.5605 21.2458 42.6818C21.4459 42.3537 21.6064 41.9884 21.8378 41.6937C22.0158 41.467 22.6753 40.4655 23.8092 39.5588C24.7316 38.8227 25.8028 37.9666 27.2892 37.8653C28.5953 37.776 29.7432 38.2853 30.6516 38.724C30.8644 38.8267 31.3297 39.0534 32.2555 39.5228C33.286 40.0455 33.5628 40.2029 34.0757 40.3909C34.7759 40.6469 34.741 40.4989 35.6668 40.8069C36.524 41.0923 37.3672 41.4336 38.2232 41.7243C38.607 41.855 39.0048 41.9297 39.3991 42.0137C40.0481 42.1537 40.6982 42.2897 41.3507 42.4124C41.6554 42.4697 41.966 42.5057 42.2742 42.5244C42.5719 42.5431 42.8708 42.5337 43.1686 42.5244C43.828 42.5031 44.4933 42.5204 45.147 42.4391C46.1263 42.3164 47.1056 42.1657 48.0709 41.947C48.8816 41.7643 49.7016 41.583 50.4669 41.1949C51.1298 40.8589 51.8137 40.5629 52.4464 40.1629C52.9175 39.8642 53.3362 39.4454 53.7502 39.0441C54.0759 38.7294 54.3911 38.3853 54.6551 38.004C54.9959 37.5093 55.1203 36.9132 54.8621 36.3305C54.6574 35.8704 54.633 35.4331 54.7318 34.953C54.84 34.4263 54.8726 33.8969 54.7539 33.3622C54.7132 33.1769 54.7237 32.9782 54.7016 32.7862C54.6342 32.1981 54.6004 31.6007 54.4806 31.026C54.3527 30.4166 54.2201 29.8245 54.2969 29.1858C54.3504 28.7458 54.3318 28.2951 54.3504 27.8484C54.3608 27.595 54.298 27.379 54.1375 27.203C53.6072 26.6202 53.1594 25.9215 52.4232 25.6348C52.3883 25.6215 52.3592 25.5842 52.3289 25.5601C52.308 25.2201 52.315 25.2134 52.1115 24.9788C51.8393 24.6654 51.5625 24.3574 51.2775 24.0587C50.8402 23.5986 50.6995 23.0692 50.9007 22.4092C51.0251 22.0038 51.1042 21.5798 51.1868 21.1597C51.2333 20.9237 51.1473 20.7544 50.9728 20.589C50.6879 20.3197 50.3552 20.225 50.0191 20.1223C49.7586 20.0436 49.4957 19.9783 49.1945 19.8956C49.2398 19.6729 49.2782 19.4916 49.3131 19.3076C49.3794 18.9609 49.4585 18.6155 49.5038 18.2648C49.5457 17.9408 49.5062 17.9048 49.2375 17.7661C49.0386 17.6634 48.8246 17.5754 48.6548 17.4247C48.2233 17.0433 47.9709 16.53 47.7883 15.9766C47.729 15.7966 47.6767 15.6125 47.629 15.4272C47.4615 14.7831 47.2789 14.1537 47.0056 13.5577C46.795 13.099 46.6078 12.6256 46.4194 12.1536C46.3414 11.9575 46.1972 11.7869 45.9949 11.5962C45.8564 11.4655 45.7995 11.4495 45.7204 11.3455C45.5285 11.0935 45.5401 10.7628 45.5343 10.5921C45.5017 9.53464 44.6469 8.6879 44.4247 8.43054C44.0851 8.0385 43.6536 7.94916 43.2058 8.20785C42.5568 8.58255 41.9067 8.95992 41.3902 9.56531C41.0099 10.0107 40.5854 10.4227 40.2784 10.9281C39.6363 11.9829 38.9024 12.939 38.115 13.8484C38.0511 13.9217 37.9662 13.9724 37.8906 14.0324C37.9022 13.8617 37.958 13.747 38.008 13.6297C38.1371 13.323 38.2848 13.023 38.3872 12.7056C38.557 12.1762 38.6942 11.6335 38.8513 11.0988C39.1351 10.1307 39.3083 9.15194 39.1025 8.12918C39.0734 7.98517 39.0746 7.83448 39.0606 7.68647C39.0153 7.20509 38.8943 7.06508 38.4674 7.05174C38.222 7.04374 37.9755 7.06908 37.7301 7.09042C37.4893 7.11042 37.3067 7.06241 37.2113 6.75705C37.1474 6.55036 37.009 6.37701 36.9217 6.177C36.8066 5.9103 36.624 5.77296 36.3728 5.74362C35.9087 5.69162 35.4435 5.63695 34.9794 5.59294C34.8654 5.58227 34.7468 5.59961 34.6316 5.61694C34.1559 5.68495 33.6814 5.78496 33.2045 5.81963C32.9242 5.84096 32.6346 5.79029 32.3567 5.72495C31.4076 5.50093 30.4632 5.24758 29.513 5.02489C29.3152 4.97822 29.1012 5.01022 28.8954 5.02089C28.7279 5.03022 28.5616 5.05556 28.3964 5.08356C27.9626 5.15557 27.5229 5.20224 27.0973 5.32092C26.8821 5.38092 26.6925 5.56894 26.4948 5.70629C26.2971 5.8423 26.1145 6.01965 25.9039 6.11832C25.5934 6.26367 25.2561 6.33034 24.9456 6.47302C24.4559 6.69971 23.9907 6.65437 23.515 6.42235C22.9556 6.14899 22.4054 5.8583 21.789 5.75429C21.3808 5.68628 21.0504 5.73695 20.7655 6.09565C20.5922 6.31568 20.4049 6.52503 20.2049 6.71171C19.9525 6.94773 19.8781 6.93707 19.6222 6.72105C19.5594 6.66771 19.4977 6.6117 19.4419 6.5517C19.2395 6.33301 18.9965 6.25167 18.7255 6.28634C18.1416 6.35968 17.5694 6.47302 17.096 6.9264C16.9785 7.03974 16.8366 7.12375 16.7006 7.20909C16.283 7.46645 15.9643 7.83182 15.8434 8.36387C15.7852 8.61589 15.6549 8.7079 15.4677 8.7399C15.2886 8.77057 15.106 8.78391 14.9257 8.79057C14.3325 8.81324 13.7766 9.01059 13.2323 9.26262C13.1253 9.31196 13.0101 9.36796 12.9299 9.4573C12.5693 9.86134 12.2134 10.272 11.8691 10.6948C11.7691 10.8174 11.6912 10.9308 11.5319 10.9614C11.319 11.0028 11.1097 11.0721 10.9061 11.1548C10.7119 11.2321 10.5072 11.3068 10.3444 11.4415C10.0187 11.7095 9.73375 12.0282 9.49764 12.4136C9.12895 13.0163 8.69512 13.5457 8.01007 13.6724C7.69372 13.731 7.43901 13.9337 7.18662 14.1484C6.82374 14.4564 6.41434 14.6925 6.12473 15.1098C5.81071 15.5632 5.48156 16.0019 5.16636 16.454C4.94538 16.7713 4.95003 17.1447 5.14775 17.4807C5.22684 17.6141 5.285 17.7648 5.35362 17.9074H5.35478ZM51.7753 25.7308C51.4532 25.8882 51.1368 26.1175 50.7949 26.1909C50.1319 26.3322 49.6213 26.7949 49.0514 27.135C48.2815 27.5923 47.5162 28.0617 46.7311 28.4804C46.0286 28.8551 45.3052 29.1818 44.5829 29.5032C44.1979 29.6752 43.7955 29.7965 43.3989 29.9339C42.7836 30.1459 42.1672 30.3513 41.5519 30.5593C41.5391 30.5246 41.5252 30.4886 41.5124 30.4539C41.6287 30.3939 41.7427 30.3286 41.8613 30.2739C42.8697 29.8072 43.8734 29.3285 44.8888 28.8818C46.1065 28.3444 47.2091 27.575 48.2815 26.7389C48.4431 26.6122 48.6001 26.4762 48.7571 26.3416C49.1061 26.1242 49.5178 25.8642 49.99 25.5615C50.4866 25.2441 50.9007 24.9734 51.2019 24.7774C51.5706 24.9508 51.7195 25.2721 51.7776 25.7322L51.7753 25.7308ZM47.0323 15.0792C47.0626 15.1618 47.0881 15.2298 47.1102 15.2925C47.1405 15.3752 47.1649 15.4445 47.173 15.4672C47.2021 15.5485 47.2579 15.7059 47.3452 15.9739C47.1486 16.2806 46.8358 16.7273 46.3915 17.198C46.1007 17.5061 46.0937 17.4621 45.4401 18.0981C44.769 18.7502 44.4945 19.0595 43.6792 19.7929C42.9871 20.4157 42.2777 21.0144 41.5694 21.6144C41.1216 21.9945 40.6529 22.3438 40.2109 22.7332C39.5305 23.3319 38.8152 23.8547 38.0639 24.3334C37.2869 24.8294 36.4937 25.3148 35.8191 26.0002C35.6772 26.1442 35.4958 26.2375 35.3144 26.3309C35.868 25.6882 36.4088 25.0321 36.9776 24.408C37.4346 23.9053 37.922 23.4373 38.4012 22.9599C38.9583 22.4052 39.477 21.7971 40.1039 21.3398C40.333 21.1731 40.5726 21.0237 40.8052 20.8637C41.9206 20.097 42.9488 19.1969 43.9176 18.2075C44.4794 17.6327 45.0237 17.0367 45.5878 16.466C46.0425 16.0059 46.5159 15.5699 47.0323 15.0765V15.0792ZM44.5271 9.816C44.5503 9.78267 44.5852 9.76133 44.6143 9.736C44.8585 9.94668 44.8934 10.0414 45.1714 11.2561C45.0621 11.3601 44.9423 11.4895 44.8097 11.5988C44.441 11.9002 44.049 12.1682 43.7001 12.4963C43.1907 12.9763 42.6464 13.4163 42.2556 14.0444C41.9927 14.4658 41.738 14.8978 41.4507 15.2965C41.1716 15.6832 40.882 16.0713 40.5505 16.3966C39.5084 17.4221 38.4407 18.4128 37.3928 19.4316C36.9892 19.8236 36.6123 20.253 36.2227 20.6637C36.1774 20.7117 36.1239 20.7504 36.0738 20.7944C36.0483 20.7664 36.0215 20.7384 35.9959 20.7104C36.4902 20.049 36.9659 19.3689 37.4847 18.7328C38.1046 17.9741 38.7559 17.25 39.4037 16.522C39.7061 16.1819 40.0097 15.8312 40.3551 15.5525C40.9855 15.0432 41.403 14.3258 41.8753 13.6577C41.9892 13.4963 42.1044 13.3363 42.216 13.1737C42.986 12.0535 43.7548 10.9334 44.5247 9.81334L44.5271 9.816ZM37.002 8.22119C37.0136 8.17852 37.0264 8.13585 37.0404 8.09451C37.2241 7.52379 37.3811 7.44111 37.958 7.63047C37.9394 7.75581 37.9348 7.88916 37.8999 8.01183C37.7754 8.44921 37.644 8.88525 37.5091 9.31862C37.3567 9.808 37.1811 10.288 37.0508 10.7854C36.9659 11.1081 36.9555 11.4548 36.8915 11.7855C36.7926 12.3042 36.71 12.8323 36.5612 13.3337C36.303 14.2031 36.0017 15.0552 35.7133 15.9126C35.6202 16.1899 35.5144 16.4606 35.4062 16.73C35.1527 17.3634 34.9084 18.0034 34.6316 18.6235C34.4793 18.9635 34.2699 19.2716 34.0838 19.5916C34.1269 19.4182 34.1664 19.2436 34.2106 19.0715C34.3862 18.3848 34.7154 17.7714 34.9445 17.114C35.1632 16.4846 35.2923 15.8086 35.426 15.1445C35.6447 14.0631 35.7994 12.963 36.0459 11.8895C36.3286 10.6561 36.681 9.44264 37.0031 8.21985L37.002 8.22119ZM32.1636 6.5437C32.1938 6.35835 32.2404 6.197 32.4497 6.20367C32.6823 6.21033 32.7963 6.28901 32.8359 6.54236C32.8649 6.72905 32.8777 6.9264 32.8614 7.11442C32.8103 7.71847 32.7451 8.32253 32.68 8.92525C32.616 9.52664 32.5439 10.1267 32.4788 10.7281C32.4358 11.1228 32.4148 11.5228 32.352 11.9135C32.2473 12.5696 32.138 13.2257 31.9926 13.8711C31.8193 14.6458 31.6158 15.4139 31.4076 16.1779C31.2866 16.6246 31.1308 17.0594 30.9901 17.4994C30.9645 17.4927 30.9377 17.4847 30.9121 17.4781C31.0796 16.6273 31.225 15.7699 31.4204 14.9285C31.5914 14.1911 31.6728 13.4443 31.7274 12.6909C31.7903 11.8335 31.8217 10.9788 31.8042 10.1147C31.7868 9.26262 31.9217 8.40654 32.0043 7.55312C32.0368 7.21443 32.1089 6.8824 32.1624 6.54636L32.1636 6.5437ZM29.2501 5.74095C29.3594 5.50227 29.4629 5.46093 29.699 5.5236C29.8258 5.55694 29.9503 5.59961 30.0747 5.64095C30.1247 5.65695 30.1724 5.67962 30.2585 5.71429C30.2457 5.8223 30.2527 5.94097 30.2178 6.04098C29.9805 6.71571 29.7572 7.39844 29.485 8.05451C29.1943 8.75457 28.9524 9.4693 28.7953 10.2227C28.6418 10.9588 28.4801 11.6935 28.3324 12.4309C28.1975 13.1096 28.0777 13.7924 27.9475 14.4711C27.9265 14.5818 27.8812 14.6871 27.8463 14.7951C27.8218 14.7858 27.7974 14.7778 27.773 14.7685C27.8091 14.3431 27.837 13.9164 27.8812 13.4923C27.9975 12.3869 28.0754 11.2735 28.2522 10.18C28.4266 9.10127 28.7035 8.04517 28.9372 6.9784C28.9966 6.70505 29.0605 6.43302 29.1257 6.16099C29.1605 6.01831 29.1896 5.8703 29.2489 5.74095H29.2501ZM26.6867 6.48102C26.7146 6.21433 26.7914 6.05032 27.0007 5.92631C27.3543 5.71695 27.7137 5.59027 28.1173 5.60094C28.3976 5.60761 28.679 5.55694 29.0128 5.5276C28.9396 5.90897 28.8849 6.23834 28.8116 6.56103C28.736 6.8904 28.6337 7.21176 28.5557 7.54112C28.2452 8.84258 27.9579 10.1467 27.8626 11.5015C27.787 12.5803 27.6602 13.6537 27.5415 14.7285C27.4392 15.6566 27.3392 16.5846 27.1996 17.5061C27.0798 18.2941 26.8995 19.0702 26.7588 19.8543C26.6599 20.405 26.5925 20.965 26.4913 21.5158C26.3738 22.1532 26.2447 22.7879 26.104 23.4186C25.9854 23.9493 25.8435 24.4734 25.7109 25.0014C25.6795 24.9988 25.6492 24.9974 25.6178 24.9948C25.6632 24.6334 25.7155 24.2734 25.7539 23.9107C25.8586 22.9079 25.9795 21.9065 25.9574 20.8917C25.933 19.7943 25.9074 18.6968 25.9098 17.6007C25.9121 16.0273 25.94 14.4538 25.9563 12.879C25.9691 11.6095 26.2238 10.3747 26.3668 9.12394C26.468 8.24119 26.596 7.36377 26.6879 6.47969L26.6867 6.48102ZM20.6992 6.87706C20.8434 6.75305 20.9841 6.61837 21.1028 6.46502C21.3238 6.17833 21.5878 6.14766 21.882 6.25434C22.153 6.35301 22.4264 6.45169 22.6904 6.57037C22.8881 6.65971 22.9951 6.82106 22.9602 7.09308C22.8986 7.57713 22.8486 8.06384 22.8055 8.55189C22.7171 9.55731 22.6241 10.5614 22.5555 11.5682C22.5031 12.3376 22.4496 13.111 22.4647 13.8817C22.481 14.6951 22.5706 15.5072 22.645 16.3179C22.6822 16.7273 22.7543 17.1327 22.7415 17.5647C22.6822 17.4127 22.6241 17.2594 22.5636 17.1074C22.231 16.2713 21.8937 15.4379 21.5645 14.6005C21.0388 13.2603 20.4957 11.9255 20.2002 10.4841C20.013 9.57331 19.835 8.66123 19.6571 7.74781C19.6385 7.64913 19.6489 7.54379 19.6431 7.35977C20.1537 7.55846 20.3956 7.13975 20.698 6.87973L20.6992 6.87706ZM12.2879 11.0148C12.5019 11.0961 12.5751 11.3121 12.6821 11.4908C12.7915 11.6748 12.8833 11.8775 13.0148 12.0362C14.0139 13.247 14.7454 14.6551 15.3491 16.1593C15.4479 16.4073 15.5584 16.6486 15.6631 16.8927C15.6398 16.91 15.6154 16.9273 15.5921 16.9447C15.5072 16.8407 15.4247 16.734 15.3374 16.6313C14.9559 16.1873 14.564 15.7566 14.1941 15.2992C13.8696 14.8978 13.5684 14.4684 13.2602 14.0497C13.1183 13.8577 12.9892 13.6524 12.8426 13.4643C12.5181 13.047 11.9575 11.9442 11.854 11.4748C12.0029 11.3161 12.1436 11.1668 12.289 11.0121L12.2879 11.0148ZM8.41482 13.9911C8.63348 14.3458 8.83935 14.7018 9.06498 15.0418C9.34761 15.4659 9.64187 15.8792 9.93729 16.2913C10.1594 16.6006 10.4002 16.894 10.6154 17.2087C11.1318 17.9648 11.4958 18.0621 12.9124 19.3662C13.3893 19.8049 13.6277 20.025 13.6103 20.057C13.5521 20.161 11.7656 19.1222 10.1513 17.7327C8.87191 16.6326 7.94843 15.5272 7.34363 14.7178C7.59835 14.2978 7.96239 14.0817 8.41482 13.9911ZM5.7793 16.2473C6.12706 15.8272 6.48296 15.4165 6.8377 15.0045C6.87259 14.9645 6.9226 14.9432 6.9761 14.9058C7.02379 14.9405 7.07264 14.9632 7.10637 15.0018C7.64836 15.6165 8.18337 16.2419 8.73351 16.8473C8.93821 17.0714 9.17896 17.2527 9.40344 17.4527C10.6049 18.5208 11.8726 19.4622 13.2602 20.1943C13.8696 20.5157 14.4698 20.8864 15.0234 21.3197C15.6643 21.8198 16.2539 22.4079 16.8587 22.9666C17.3228 23.3946 17.7822 23.8293 18.2358 24.272C19.0383 25.0534 19.7711 25.9108 20.3968 26.8856C20.8934 27.659 21.3959 28.4271 21.9321 29.2538C22.0251 28.9898 21.9274 28.8485 21.846 28.7178C21.2738 27.799 20.7015 26.8803 20.12 25.9695C19.9746 25.7428 19.8071 25.5321 19.6327 25.3335C18.3195 23.828 16.8936 22.4719 15.4037 21.2037C15.0699 20.9197 15.1467 20.9917 14.4314 20.3903C13.4137 19.5356 12.5926 18.8328 12.0564 18.3715C12.0564 18.3715 11.6133 17.9194 10.9352 17.15C10.8166 17.0153 10.7189 16.854 10.6107 16.706C10.0571 15.9406 9.50346 15.1752 8.95216 14.4084C8.88587 14.3164 8.82771 14.2178 8.77305 14.1164C8.6928 13.9684 8.69164 13.8217 8.84749 13.7457C9.30108 13.523 9.5779 13.0883 9.84075 12.6456C10.0803 12.2402 10.4176 11.9615 10.7607 11.7028C10.9201 11.5828 11.1527 11.5895 11.3493 11.5388C11.9436 12.6216 12.5763 13.6284 13.3125 14.5431C13.9452 15.3299 14.6093 16.0846 15.2153 16.8967C16.0737 18.0474 16.9413 19.1942 17.6438 20.4863C17.8625 20.889 18.1137 21.2691 18.3544 21.6558C18.4126 21.7491 18.4894 21.8251 18.6022 21.8851C18.5824 21.8131 18.5743 21.7331 18.5394 21.6718C18.1683 21.0104 17.8055 20.3423 17.417 19.6943C17.417 19.6943 16.8436 18.9209 16.3795 18.0808C15.762 16.962 15.8876 16.69 15.2107 15.1965C14.7024 14.0751 14.4267 13.5364 14.0557 13.039C13.5428 12.3509 13.0962 11.6002 12.6124 10.8841C12.4914 10.7054 12.5042 10.5614 12.6356 10.4147C13.1264 9.86668 13.6603 9.4133 14.3744 9.32662C14.8489 9.26929 15.3211 9.18794 15.8259 9.11194C15.912 9.33596 16.0062 9.55998 16.0864 9.78933C16.5924 11.2361 17.082 12.6923 17.6066 14.1297C17.8566 14.8138 18.1497 15.4805 18.4638 16.1286C18.8243 16.8727 19.1256 17.6354 19.3291 18.4568C19.6094 19.5863 19.9025 20.7117 20.2165 21.8291C20.598 23.1866 21.0051 24.5347 21.4063 25.8855C21.4622 26.0749 21.5424 26.2549 21.611 26.4389C21.639 26.4282 21.6669 26.4162 21.6936 26.4056C21.6436 26.1829 21.6017 25.9562 21.5413 25.7362C21.2261 24.5881 20.9062 23.4399 20.5875 22.2932C20.2898 21.2184 19.9862 20.145 19.6966 19.0675C19.5826 18.6422 19.5175 18.1995 19.3954 17.7768C19.2849 17.398 19.1395 17.0313 18.9872 16.6713C18.6708 15.9246 18.33 15.1898 18.016 14.4418C17.809 13.9471 17.6287 13.4363 17.4391 12.9323C17.2763 12.4976 17.1041 12.0655 16.9588 11.6215C16.6901 10.8014 16.4365 9.97602 16.1795 9.15061C16.162 9.09594 16.1376 9.02526 16.1539 8.97993C16.3877 8.36387 16.5226 7.6918 17.1565 7.36911C17.531 7.17842 17.8753 6.9264 18.28 6.79039C18.8557 6.5957 19.2919 6.91173 19.3838 7.52246C19.4128 7.71314 19.4466 7.90249 19.4756 8.09318C19.4908 8.19585 19.4908 8.30253 19.5129 8.40254C19.7978 9.65066 20.02 10.9254 20.3921 12.1389C20.7376 13.2683 21.2482 14.3311 21.6773 15.4285C21.9111 16.0246 22.1181 16.634 22.3542 17.2287C22.6939 18.0874 22.8741 19.0022 23.0951 19.9023C23.2068 20.3583 23.3591 20.8064 23.4278 21.2704C23.5941 22.4052 23.5406 23.5466 23.4754 24.6921C23.4103 25.8468 23.4359 27.0083 23.4231 28.1671C23.4231 28.2377 23.444 28.3097 23.5057 28.3911C23.5231 28.3231 23.5534 28.2551 23.5557 28.1857C23.5929 27.1163 23.6232 26.0469 23.6615 24.9774C23.6697 24.7401 23.7069 24.5054 23.7302 24.2694C23.8593 22.9266 23.7581 21.6064 23.501 20.2863C23.2998 19.2582 23.18 18.2101 23.0242 17.17C22.9742 16.8327 22.9265 16.4953 22.8718 16.1593C22.5962 14.4751 22.6997 12.7856 22.7985 11.0948C22.8718 9.84801 23.0032 8.60922 23.187 7.37711C23.2079 7.23309 23.2393 7.09042 23.2696 6.92907C23.5196 6.97707 23.7453 7.05708 23.9721 7.05708C24.6536 7.05841 25.3084 6.8944 25.933 6.57303C26.0703 6.50236 26.2226 6.46636 26.4145 6.39835C26.4145 6.64637 26.4355 6.85306 26.4099 7.05174C26.318 7.78648 26.2052 8.51722 26.1121 9.25195C25.8702 11.1628 25.6027 13.0683 25.7027 15.0138C25.7469 15.8726 25.6853 16.7367 25.683 17.5981C25.6806 18.5635 25.6853 19.5289 25.6958 20.4943C25.7097 21.8211 25.6341 23.1386 25.4596 24.4507C25.3666 25.1548 25.2991 25.8642 25.2433 26.5736C25.1759 27.439 25.1456 28.3097 25.077 29.1752C25.0375 29.6765 24.9491 30.1712 24.8874 30.67C24.8572 30.91 24.8374 31.1527 24.813 31.394C24.8421 31.4007 24.87 31.4074 24.899 31.4154C24.927 31.3434 24.9642 31.2727 24.9793 31.198C25.1677 30.2726 25.3247 29.3458 25.3422 28.3884C25.3503 27.947 25.4271 27.5003 25.5201 27.0683C25.7399 26.0442 25.9877 25.0281 26.2238 24.0093C26.4599 22.9906 26.7437 21.9865 26.8181 20.921C26.8542 20.409 27.0112 19.9076 27.1124 19.4009C27.2275 18.8222 27.3334 18.2408 27.459 17.6634C27.6439 16.814 27.8463 15.9686 28.0324 15.1192C28.2301 14.2124 28.4732 13.3217 28.593 12.3896C28.8116 10.6908 29.228 9.0546 29.9072 7.51312C30.1178 7.03574 30.3038 6.54503 30.4911 6.05565C30.5783 5.82763 30.7167 5.74229 30.9226 5.78896C31.2645 5.86763 31.6053 5.94897 31.9554 6.03165C31.9601 6.14099 31.9752 6.21433 31.9635 6.28367C31.874 6.83706 31.7658 7.38644 31.6902 7.94249C31.6391 8.3212 31.6216 8.7079 31.6065 9.09194C31.5879 9.55198 31.5809 10.012 31.5809 10.4721C31.5809 11.8269 31.482 13.171 31.2366 14.4978C31.0343 15.5885 30.8435 16.682 30.6086 17.7621C30.4457 18.5088 30.2294 19.2409 30.0073 19.9676C29.9061 20.2997 29.7223 20.5983 29.592 20.921C29.2548 21.7558 28.921 22.5932 28.5976 23.4346C28.2429 24.356 27.9009 25.2828 27.5567 26.2082C27.502 26.3536 27.4683 26.5096 27.4846 26.6936C27.5288 26.6176 27.5811 26.5482 27.6148 26.4669C28.0754 25.3361 28.5336 24.2054 28.9907 23.0732C29.0501 22.9252 29.1094 22.7746 29.1512 22.6199C29.4315 21.5904 29.9375 20.681 30.3259 19.7103C30.8389 18.4261 31.3843 17.1607 31.724 15.7952C31.9263 14.9805 32.1741 14.1804 32.3485 13.359C32.48 12.7416 32.5335 12.1016 32.6102 11.4708C32.7091 10.6628 32.7963 9.85467 32.887 9.04527C32.8987 8.94259 32.9045 8.83991 32.9138 8.73724C32.9882 7.92916 33.0615 7.12108 33.1383 6.29434C33.586 6.245 34.0071 6.189 34.4304 6.15299C34.8422 6.11832 35.2562 6.10232 35.6691 6.07832C36.1832 6.04898 36.5844 6.42102 36.7601 7.00107C36.9031 7.47445 36.8915 7.87982 36.7624 8.33186C36.4588 9.39063 36.1494 10.4481 35.8947 11.5215C35.6714 12.4629 35.5214 13.427 35.3341 14.3804C35.1469 15.3339 35.0015 16.2966 34.6386 17.2007C34.3746 17.8581 34.1966 18.5595 33.9733 19.2382C33.6535 20.209 33.3232 21.1677 32.7358 21.9891C32.138 22.8252 31.603 23.7186 31.0133 24.5627C30.4958 25.3028 29.9445 26.0135 29.4001 26.7296C28.8279 27.483 28.3324 28.3004 27.8788 29.1485C27.3171 30.1966 26.7879 31.2673 26.2529 32.3354C25.8993 33.0408 25.5376 33.7436 25.2224 34.4717C24.97 35.0544 24.7827 35.6744 24.5606 36.2745C24.4606 36.5452 24.3431 36.8092 24.2815 37.1159C24.3803 36.9439 24.4966 36.7825 24.5757 36.5998C25.0061 35.6011 25.4236 34.5957 25.8551 33.5982C25.9516 33.3755 26.0935 33.1809 26.2052 32.9662C26.86 31.7034 27.5043 30.4339 28.1673 29.1765C28.8861 27.8137 29.7258 26.5589 30.6597 25.3735C31.3948 24.44 32.038 23.4106 32.7126 22.4172C33.015 21.9718 33.3197 21.5264 33.5791 21.0491C34.1943 19.9156 34.8549 18.8075 35.3155 17.5741C35.704 16.5366 36.0669 15.4872 36.4239 14.4351C36.7868 13.3657 36.9985 12.2509 37.1578 11.1188C37.2195 10.6854 37.3753 10.2667 37.5044 9.84801C37.7242 9.13461 37.9569 8.42654 38.1871 7.71714C38.2034 7.66647 38.2488 7.62913 38.2814 7.58379C38.4826 7.60913 38.5547 7.76381 38.5919 7.94116C38.7094 8.50921 38.7978 9.0866 38.6628 9.66132C38.5082 10.3201 38.3162 10.9681 38.1453 11.6215C38.0708 11.9055 38.029 12.2029 37.9324 12.4749C37.7824 12.9003 37.5998 13.3097 37.4277 13.7244C37.3114 14.0057 37.1846 14.2804 37.0764 14.5658C37.0369 14.6711 37.0229 14.7978 37.0229 14.9138C37.0229 15.1552 37.1602 15.2632 37.3602 15.1818C37.4312 15.1525 37.4998 15.1005 37.5556 15.0418C38.0069 14.5711 38.4616 14.1057 38.8989 13.619C39.0839 13.4137 39.2293 13.1617 39.3967 12.9336C39.855 12.3082 40.3505 11.7202 40.7273 11.0161C40.8727 10.7454 41.1146 10.5387 41.3193 10.3121C41.9392 9.62799 42.5987 9.00926 43.4152 8.65189C43.4977 8.61589 43.6024 8.55855 43.671 8.58789C43.9804 8.72123 44.2444 8.94259 44.4049 9.27729C44.4445 9.35996 44.3886 9.54131 44.3282 9.63865C44.0316 10.1254 43.7315 10.6094 43.4093 11.0735C42.8848 11.8282 42.3393 12.5629 41.809 13.3123C41.5159 13.7257 41.2565 14.1751 40.9413 14.5658C40.6366 14.9432 40.2807 15.2658 39.948 15.6139C39.6619 15.9139 39.37 16.2073 39.0943 16.5193C38.6791 16.9887 38.2779 17.4727 37.8673 17.9474C37.7301 18.1048 37.5777 18.2448 37.4405 18.4021C36.6449 19.3209 35.9761 20.3623 35.2713 21.3691C34.7363 22.1332 34.2281 22.9212 33.693 23.6853C33.0533 24.6001 32.4253 25.5295 31.7391 26.3976C31.289 26.9669 30.7446 27.4377 30.2399 27.9497C30.0224 28.1697 29.7991 28.3804 29.5595 28.6124C29.6897 28.6778 29.7863 28.6084 29.8712 28.5284C30.3911 28.0404 30.94 27.583 31.4192 27.047C32.0496 26.3416 32.6405 25.5882 33.2173 24.8254C33.6151 24.3 33.9571 23.7213 34.3339 23.1746C34.4351 23.0279 34.5723 22.9146 34.6921 22.7852C34.8049 22.6639 34.9212 22.5439 35.0306 22.4185C35.7924 21.5491 36.5181 20.633 37.3242 19.8196C38.4709 18.6608 39.6724 17.5701 40.8599 16.4646C41.3414 16.0166 41.7287 15.4725 42.0544 14.8885C42.5091 14.0724 43.0895 13.4097 43.7315 12.807C44.1316 12.4309 44.5573 12.0909 44.9748 11.7402C45.0563 11.6722 45.1516 11.6268 45.2412 11.5708C45.7588 12.0562 46.1414 12.6256 46.3949 13.3097C46.5764 13.8004 46.7578 14.2898 46.9335 14.7658C46.5915 15.1298 46.2752 15.4779 45.9483 15.8139C45.4366 16.3393 44.9179 16.8567 44.4049 17.3794C43.4163 18.3861 42.4126 19.3729 41.3065 20.2103C40.9076 20.513 40.4761 20.7624 40.0795 21.0677C39.6084 21.4291 39.1304 21.7825 38.7268 22.2518C38.4733 22.5479 38.1837 22.8026 37.915 23.0812C37.4916 23.5186 37.0613 23.9507 36.6519 24.4054C36.1576 24.9521 35.6842 25.5241 35.1969 26.0789C34.6014 26.7589 34.0187 27.4577 33.3976 28.1071C32.5556 28.9885 31.7542 29.9206 30.8307 30.702C30.3271 31.1287 29.9003 31.6741 29.4781 32.2301C29.5758 32.1394 29.6723 32.0448 29.7735 31.9567C29.8875 31.8581 30.0084 31.7701 30.1189 31.6687C30.5853 31.2433 31.0552 30.8233 31.5111 30.3833C32.2578 29.6619 32.8033 29.0738 32.8207 29.0551C34.7712 27.0136 37.4358 25.0721 38.2895 24.492C38.45 24.3827 38.9711 24.0133 39.6747 23.492C39.891 23.3319 40.1446 23.1319 40.4982 22.8319C41.1448 22.2838 41.8078 21.7611 42.4428 21.1957C43.1767 20.5423 44.2084 19.6569 45.4784 18.4101C46.0065 17.8914 46.6904 17.2007 47.4731 16.3566C47.5045 16.4513 47.5534 16.5913 47.6185 16.7593C47.7057 16.9793 47.7837 17.1474 47.8011 17.1834C48.0151 17.6287 48.4059 17.9034 48.8362 18.0648C49.0444 18.5008 48.9793 18.9209 48.7932 19.3396C48.7292 19.4836 48.649 19.6436 48.649 19.7969C48.6478 20.105 48.4931 20.245 48.2873 20.3637C47.4138 20.869 46.6241 21.5198 45.8785 22.2372C45.0039 23.0786 44.0851 23.852 43.1349 24.5721C42.0869 25.3668 41.0111 26.1109 39.9573 26.8936C39.5445 27.2003 39.1618 27.5603 38.7559 27.879C37.922 28.5324 37.0869 29.1845 36.2425 29.8205C35.3085 30.5246 34.3188 31.114 33.2964 31.6234C32.6544 31.9434 32.0112 32.2528 31.425 32.6982C31.3611 32.7462 31.2832 32.7715 31.2087 32.7968C30.3573 33.0822 29.7153 33.7262 29.1187 34.4503C29.2629 34.3503 29.4094 34.2556 29.549 34.149C29.699 34.0329 29.8386 33.8983 29.9898 33.7849C30.2387 33.5996 30.483 33.4009 30.7481 33.2502C31.503 32.8208 32.2555 32.3835 33.0289 32.0048C34.6689 31.202 36.2157 30.2139 37.6684 29.0325C38.5454 28.3191 39.4084 27.583 40.2981 26.8896C40.9087 26.4136 41.5624 26.0122 42.18 25.5481C42.9162 24.9934 43.6454 24.4254 44.3572 23.8293C45.2144 23.1119 46.039 22.3425 46.8997 21.6304C47.3708 21.2411 47.8883 20.9237 48.3838 20.5717C48.8467 20.2423 49.334 20.337 49.8121 20.4837C50.0307 20.5503 50.2389 20.6877 50.4343 20.8264C50.6309 20.9664 50.6867 21.1904 50.6146 21.4478C50.5471 21.6878 50.4785 21.9278 50.4099 22.1678C50.1889 22.9359 50.2494 23.6346 50.796 24.212C50.853 24.272 50.903 24.3414 50.9519 24.4094C50.967 24.4294 50.967 24.464 50.9879 24.5467C50.8716 24.6481 50.6879 24.8081 50.4564 24.9948C49.8888 25.4535 49.3887 25.7908 48.4129 26.4482C48.0837 26.6696 47.8151 26.8469 47.4173 27.139C47.1335 27.347 47.0079 27.4497 46.8695 27.5537C46.395 27.9084 45.9588 28.1484 45.2761 28.4631C44.6399 28.7564 43.992 29.0151 43.3558 29.3098C42.0532 29.9139 42.2498 29.8792 40.7378 30.5553C39.5921 31.0687 39.0862 31.2393 37.979 31.8061C37.6079 31.9954 37.3055 32.1608 37.1032 32.2728C37.2171 32.3048 37.2497 32.3274 37.273 32.3194C38.2523 31.9301 39.2281 31.5287 40.2097 31.15C40.4784 31.046 40.7692 31.0233 41.0425 30.934C41.8636 30.666 42.6778 30.3633 43.5024 30.1112C44.7969 29.7152 46.0356 29.1498 47.2545 28.5191C47.7499 28.2631 48.2605 28.023 48.713 27.6857C49.0712 27.419 49.4434 27.187 49.8109 26.9429C50.0214 26.8029 50.2482 26.6869 50.4762 26.5869C50.8995 26.3989 51.3345 26.2469 51.7521 26.0455C51.937 25.9575 52.0905 25.9322 52.2638 26.0429C52.8012 26.3869 53.2768 26.8176 53.6793 27.351C53.8921 27.6323 53.9084 27.967 53.87 28.3191C53.8491 28.5018 53.7328 28.5538 53.6141 28.6164C53.0175 28.9365 52.4115 29.2365 51.8265 29.5832C51.0042 30.0699 50.1249 30.3779 49.2503 30.6993C48.5839 30.9433 47.9 31.126 47.2382 31.3847C46.7625 31.5714 46.3124 31.8394 45.8506 32.0701C45.2202 32.3835 44.5829 32.6781 43.9618 33.0142C43.3651 33.3369 42.7859 33.7022 42.1974 34.0463C41.8043 34.2756 41.4205 34.5303 41.0134 34.717C40.5819 34.9157 40.1365 35.101 39.6817 35.2011C38.1802 35.5317 36.6682 35.7944 35.1352 35.8491C34.2432 35.8811 33.3511 35.9051 32.459 35.9411C31.9717 35.9598 31.7961 35.9438 31.482 35.9851C31.0494 36.0411 30.7493 36.1291 29.4478 36.4998C29.2943 36.5438 28.9686 36.6359 28.8267 36.6759C28.8326 36.7039 28.8372 36.7332 28.843 36.7612C29.0326 36.7279 29.321 36.6785 29.6711 36.6172C31.0354 36.3785 31.1971 36.3425 31.4785 36.2998C32.0077 36.2198 32.1927 36.2078 33.6872 36.1811C34.5805 36.1651 35.4807 36.1905 36.3635 36.0651C37.2986 35.9331 38.2534 35.9398 39.1653 35.6158C40.376 35.1851 41.588 34.7557 42.7999 34.329C43.5431 34.0663 44.2921 33.8249 45.0307 33.5449C45.7692 33.2649 46.495 32.9475 47.2289 32.6528C47.6453 32.4861 48.0581 32.3048 48.4838 32.1794C49.5632 31.8607 50.6471 31.562 51.7323 31.2687C52.2499 31.1287 52.7709 31.0127 53.2931 30.9007C53.4932 30.858 53.7002 30.858 53.8933 30.8393C54.3643 31.8274 54.2038 32.8675 54.2655 33.8383C53.5851 34.1703 52.9279 34.4783 52.2778 34.8077C51.3822 35.2624 50.4331 35.5117 49.4957 35.8078C48.6118 36.0878 47.6988 36.0918 46.7939 36.1038C45.4878 36.1198 44.2119 36.3038 42.9581 36.7319C42.0265 37.0492 41.0844 37.3253 40.1434 37.6039C39.8562 37.6893 39.5596 37.732 39.2653 37.784C38.5361 37.916 37.8068 38.0587 37.0752 38.1653C36.4356 38.2573 35.7901 38.3067 35.0969 38.3787C35.3155 38.5134 35.5191 38.4667 35.7086 38.4614C36.1122 38.4494 36.353 38.456 36.9892 38.3867C38.1639 38.2587 38.222 38.2773 38.6221 38.1947C39.0001 38.116 39.2676 38.0293 39.4933 37.9653C40.4365 37.6986 41.3786 37.4239 42.323 37.1612C43.1907 36.9199 44.0432 36.6159 44.9411 36.5185C45.7041 36.4358 46.4671 36.4145 47.23 36.3678C48.2233 36.3065 49.2224 36.2425 50.1738 35.8264C50.632 35.6264 51.131 35.5531 51.5892 35.3544C52.3871 35.0064 53.1675 34.6037 53.9561 34.225C54.0375 34.1863 54.1212 34.1543 54.2562 34.0969C54.2585 34.309 54.269 34.481 54.2585 34.6503C54.2492 34.797 54.212 34.9424 54.191 35.0877C54.1201 35.5651 54.1189 36.0291 54.3376 36.4705C54.4085 36.6145 54.4295 36.7932 54.4783 36.9746C53.6723 37.0932 52.9151 37.1839 52.165 37.3253C51.7451 37.4039 51.3392 37.5786 50.9228 37.6866C50.09 37.9026 49.2549 38.1067 48.4187 38.3053C48.3082 38.332 48.1872 38.296 48.0709 38.3C46.9974 38.336 45.9286 38.332 44.8562 38.1693C43.856 38.0173 42.8429 37.9666 41.8334 37.92C41.3588 37.8973 40.8797 37.9853 40.4028 38.028C40.1725 38.0493 39.9411 38.072 39.7131 38.112C39.5933 38.1333 39.4782 38.1947 39.2816 38.268C39.52 38.412 39.6782 38.348 39.8317 38.3173C41.0123 38.08 42.1928 38.0347 43.3803 38.2613C43.7245 38.3267 44.0769 38.3347 44.4259 38.368C44.7236 38.396 45.026 38.3894 45.3168 38.456C46.0123 38.6147 46.7113 38.5387 47.4091 38.536C47.6557 38.536 47.9011 38.4987 48.1465 38.5067C48.7397 38.524 49.298 38.308 49.8679 38.1787C50.7309 37.984 51.5846 37.7333 52.4487 37.5506C53.0186 37.4306 53.6013 37.3853 54.1794 37.3119C54.2248 37.3066 54.2736 37.3426 54.369 37.3759C54.3155 37.5399 54.2969 37.7146 54.2155 37.8253C53.9805 38.1413 53.7293 38.4427 53.4664 38.7281C53.3083 38.9001 53.1024 39.0147 52.9419 39.1854C52.4569 39.7001 51.8777 40.0255 51.2752 40.3069C50.9751 40.4469 50.6774 40.5922 50.3808 40.7389C49.348 41.2509 48.2628 41.5203 47.1498 41.671C46.7381 41.727 46.3333 41.8417 45.9227 41.9083C44.8946 42.075 43.8606 42.163 42.8208 42.1217C42.7301 42.1177 42.6382 42.1044 42.5487 42.1137C41.8892 42.1844 41.2635 41.9764 40.6296 41.823C40.2888 41.7403 39.9445 41.6697 39.598 41.6283C39.0385 41.559 38.514 41.3523 37.979 41.1749C36.8473 40.7976 35.7714 40.2135 34.6026 39.9775C34.4746 39.9522 34.349 39.9055 34.2199 39.8988C33.8617 39.8802 33.5488 39.7361 33.2325 39.5415C32.8126 39.2828 32.3613 39.0947 31.9252 38.8721C31.7484 38.7814 31.5809 38.6707 31.4029 38.584C31.0587 38.4174 30.7167 38.2373 30.3608 38.108C29.9189 37.9466 29.4676 37.804 29.0128 37.6986C28.4546 37.5693 27.8905 37.4653 27.3252 37.3973C27.074 37.3666 26.803 37.4133 26.5588 37.4946C25.5446 37.8333 24.5955 38.356 23.6918 38.9681C22.9044 39.5015 22.267 40.2549 21.7099 41.0856C21.3784 41.5803 21.0795 42.103 20.7515 42.6004C19.849 43.9685 18.8441 45.2287 17.7171 46.3568C17.1262 46.9488 16.6866 47.3849 15.7817 48.2249C14.0615 49.8211 13.1974 50.6145 12.4716 51.1465C11.9645 51.5173 11.3923 51.8493 10.2455 52.5133C8.27177 53.6561 6.32595 54.6469 6.30152 54.5895C6.29105 54.5642 6.67138 54.3282 7.28781 53.9481C8.49275 53.2054 9.10685 52.88 9.68839 52.532C10.4572 52.0706 11.0317 51.6319 12.1797 50.7558C13.038 50.1011 13.9627 49.3931 15.1025 48.3289C15.8643 47.6182 16.4831 46.9728 16.9425 46.4728C17.5484 45.8434 18.0916 45.146 18.6115 44.4206C18.9569 43.9392 19.3489 43.5032 19.7071 43.0338C19.9281 42.7444 20.1491 42.4471 20.327 42.123C20.8399 41.1936 21.3354 40.2522 21.8297 39.3094C21.9227 39.1334 21.9832 38.9334 22.0472 38.7387C22.4927 37.3599 22.7648 35.9425 22.716 34.4636C22.695 33.8276 22.6822 33.4849 22.5648 33.0075C22.2786 31.8501 21.6448 31.022 21.1842 30.4313C20.9714 30.1592 21.0318 30.2859 20.5038 29.6365C20.0537 29.0831 19.6268 28.5031 19.1581 27.971C18.7173 27.471 18.2672 26.9656 17.7624 26.5576C16.8599 25.8268 15.8492 25.3121 14.8466 24.7867C14.2348 24.4654 13.6428 24.096 13.0427 23.748C12.8461 23.6333 12.6612 23.4666 12.453 23.4106C11.8482 23.2466 11.3283 22.8839 10.7898 22.5612C10.2967 22.2652 9.80353 21.9678 9.31039 21.6704L9.32551 21.6731C8.96496 21.4704 8.60092 21.2757 8.24385 21.0651C7.76816 20.785 7.33666 20.461 7.04356 19.909C6.72139 19.3022 6.30966 18.7568 5.99447 18.1461C5.80722 17.7848 5.71766 17.3527 5.60717 16.9433C5.53738 16.6833 5.61764 16.4366 5.77814 16.2419L5.7793 16.2473ZM53.8014 28.7338C53.7874 29.3885 53.7746 29.9552 53.7618 30.5459C53.1594 30.682 52.5488 30.7993 51.9463 30.962C50.7239 31.2914 49.4806 31.522 48.2931 32.0101C47.1835 32.4648 46.0751 32.9235 44.9586 33.3515C44.2247 33.6329 43.4756 33.8663 42.6859 34.137C42.7231 34.0703 42.7313 34.0343 42.751 34.0236C43.2698 33.7249 43.7873 33.4236 44.3096 33.1315C44.5538 32.9955 44.8108 32.8888 45.0563 32.7528C46.3077 32.0621 47.6034 31.502 48.9421 31.0887C49.669 30.8646 50.3575 30.5326 51.0612 30.2393C51.8218 29.9219 52.5232 29.4912 53.2222 29.0418C53.3862 28.9365 53.5641 28.8591 53.8026 28.7338H53.8014Z" fill="#411825"/>
</svg>
