<svg width="16" height="16" viewBox="0 0 16 16" fill="none" xmlns="http://www.w3.org/2000/svg">
<g clip-path="url(#clip0_183_998)">
<path d="M6.33301 0.500122C9.54874 0.500122 12.1668 3.11743 12.167 6.33313C12.167 7.71999 11.6786 8.99354 10.8662 9.99719L10.583 10.3468L10.9014 10.6652L15.4512 15.2159C15.5163 15.2814 15.5165 15.386 15.4512 15.4513C15.4185 15.484 15.3762 15.5001 15.333 15.5001C15.2901 15.5001 15.2484 15.4837 15.2158 15.4513L10.665 10.9015L10.3467 10.5831L9.99707 10.8663C8.99342 11.6788 7.71987 12.1671 6.33301 12.1671C3.11731 12.167 0.5 9.54886 0.5 6.33313C0.500132 3.1175 3.11738 0.500254 6.33301 0.500122ZM6.33301 0.83313C3.29976 0.833278 0.83314 3.29987 0.833008 6.33313C0.833008 9.3665 3.29967 11.833 6.33301 11.8331C9.36643 11.8331 11.833 9.36659 11.833 6.33313C11.8329 3.29978 9.36639 0.83313 6.33301 0.83313Z" stroke="#D8C29D"/>
<path d="M6.33301 0.500122C9.54874 0.500122 12.1668 3.11743 12.167 6.33313C12.167 7.71999 11.6786 8.99354 10.8662 9.99719L10.583 10.3468L10.9014 10.6652L15.4512 15.2159C15.5163 15.2814 15.5165 15.386 15.4512 15.4513C15.4185 15.484 15.3762 15.5001 15.333 15.5001C15.2901 15.5001 15.2484 15.4837 15.2158 15.4513L10.665 10.9015L10.3467 10.5831L9.99707 10.8663C8.99342 11.6788 7.71987 12.1671 6.33301 12.1671C3.11731 12.167 0.5 9.54886 0.5 6.33313C0.500132 3.1175 3.11738 0.500254 6.33301 0.500122ZM6.33301 0.83313C3.29976 0.833278 0.83314 3.29987 0.833008 6.33313C0.833008 9.3665 3.29967 11.833 6.33301 11.8331C9.36643 11.8331 11.833 9.36659 11.833 6.33313C11.8329 3.29978 9.36639 0.83313 6.33301 0.83313Z" stroke="#D8C29D" stroke-opacity="0.2"/>
</g>
<defs>
<clipPath id="clip0_183_998">
<rect width="16" height="16" fill="white"/>
</clipPath>
</defs>
</svg>
