<svg width="16" height="16" viewBox="0 0 16 16" fill="none" xmlns="http://www.w3.org/2000/svg">
<g clip-path="url(#clip0_460_1766)">
<path d="M15.8045 14.862L11.2545 10.312C12.1359 9.22337 12.6665 7.84004 12.6665 6.3334C12.6665 2.84143 9.82522 0.000118256 6.33325 0.000118256C2.84128 0.000118256 0 2.8414 0 6.33337C0 9.82534 2.84132 12.6667 6.33328 12.6667C7.83992 12.6667 9.22325 12.136 10.3119 11.2547L14.8619 15.8046C14.9919 15.9346 15.1625 16 15.3332 16C15.5039 16 15.6745 15.9346 15.8045 15.8046C16.0652 15.544 16.0652 15.1226 15.8045 14.862ZM6.33328 11.3333C3.57597 11.3333 1.33333 9.09069 1.33333 6.33337C1.33333 3.57605 3.57597 1.33342 6.33328 1.33342C9.0906 1.33342 11.3332 3.57605 11.3332 6.33337C11.3332 9.09069 9.09057 11.3333 6.33328 11.3333Z" fill="#411825"/>
</g>
<defs>
<clipPath id="clip0_460_1766">
<rect width="16" height="16" fill="white"/>
</clipPath>
</defs>
</svg>
