<svg width="14" height="16" viewBox="0 0 14 16" fill="none" xmlns="http://www.w3.org/2000/svg">
<path d="M7.00046 0C9.04561 0.000102503 10.7122 1.70228 10.7122 3.79755V4.3225H13.3413C13.7026 4.3225 13.9999 4.62458 14 4.99798V13.0961C13.9999 14.699 12.7258 15.9999 11.1621 16H2.8388C1.2751 16 0.000128176 14.699 0 13.0961V4.99798C0.000116689 4.62473 0.297629 4.32274 0.658661 4.3225H3.28776V3.79755C3.28776 1.70222 4.95523 0 7.00046 0ZM1.31824 13.0961C1.31837 13.9496 2.00005 14.649 2.8388 14.649H11.1621C12.0008 14.649 12.6826 13.9496 12.6827 13.0961V5.67345H10.7122V6.67953C10.7121 7.05283 10.4147 7.35493 10.0536 7.35501C9.69239 7.35501 9.39509 7.05287 9.39492 6.67953V5.67345H4.606V6.67953C4.60583 7.0528 4.30843 7.35488 3.94734 7.35501C3.58615 7.35501 3.28793 7.05287 3.28776 6.67953V5.67345H1.31824V13.0961ZM7.00046 1.35096C5.67782 1.35096 4.606 2.44921 4.606 3.79755V4.3225H9.39492V3.79755C9.39492 2.44927 8.32302 1.35106 7.00046 1.35096Z" fill="#411825"/>
</svg>
