<svg width="17" height="17" viewBox="0 0 17 17" fill="none" xmlns="http://www.w3.org/2000/svg">
<path d="M8.5 1.40036C10.383 1.40036 12.189 2.14795 13.5205 3.47946C14.852 4.81097 15.5996 6.61693 15.5996 8.49997C15.5996 10.383 14.852 12.189 13.5205 13.5205C12.189 14.852 10.383 15.5996 8.5 15.5996C6.61696 15.5996 4.811 14.852 3.47949 13.5205C2.14798 12.189 1.40039 10.383 1.40039 8.49997C1.40039 6.61693 2.14798 4.81097 3.47949 3.47946C4.811 2.14795 6.61696 1.40036 8.5 1.40036ZM8.5 2.33688C6.86543 2.33688 5.29742 2.98575 4.1416 4.14157C2.98579 5.29739 2.33691 6.8654 2.33691 8.49997C2.33691 10.1345 2.98579 11.7026 4.1416 12.8584C5.29742 14.0142 6.86543 14.6631 8.5 14.6631C9.30927 14.6631 10.1107 14.504 10.8584 14.1943C11.6061 13.8846 12.2861 13.4307 12.8584 12.8584C13.4307 12.2861 13.8846 11.6061 14.1943 10.8584C14.504 10.1107 14.6631 9.30924 14.6631 8.49997C14.6631 6.8654 14.0142 5.29739 12.8584 4.14157C11.7026 2.98575 10.1346 2.33688 8.5 2.33688ZM8.96875 4.34763V8.38278L12.3818 10.3515L12.4678 10.4013L12.418 10.4873L12.0498 11.1289L12 11.2158L11.9131 11.166L8.08203 8.95505L8.03125 8.92575V4.34763H8.96875Z" fill="#B07A1E" stroke="#B07A1E" stroke-width="0.2"/>
</svg>
