<svg width="16" height="17" viewBox="0 0 16 17" fill="none" xmlns="http://www.w3.org/2000/svg">
<path d="M13.7723 2.49997C14.3628 2.49997 14.93 2.72179 15.3476 3.11635C15.765 3.51087 16 4.04584 16 4.60365V12.3963C15.9999 12.9541 15.765 13.4891 15.3476 13.8836C14.93 14.2781 14.3628 14.5 13.7723 14.5H2.22652C1.63604 14.5 1.06995 14.278 0.652371 13.8836C0.234867 13.4891 0.000106549 12.9541 0 12.3963V4.60365C1.95299e-08 4.04566 0.234773 3.51091 0.652371 3.11635C1.06997 2.72179 1.63594 2.49997 2.22652 2.49997H13.7723ZM1.15494 6.70733V12.3963C1.15506 12.6442 1.25118 12.8833 1.42555 13.0686C1.60001 13.254 1.84015 13.3728 2.10088 13.4019L2.11537 13.403L2.21202 13.4087H13.7723C14.0348 13.4087 14.2888 13.3179 14.485 13.1531C14.6812 12.9883 14.807 12.7612 14.8378 12.515L14.839 12.5013L14.8439 12.41L14.8451 6.70733H1.15494ZM9.64905 9.513H12.1232C12.2701 9.51322 12.4114 9.56617 12.5183 9.66139C12.6253 9.75683 12.6897 9.88786 12.6983 10.0267C12.7068 10.1651 12.6595 10.3014 12.5654 10.4079C12.4713 10.5141 12.3375 10.5817 12.1921 10.5985L12.1087 10.6042H9.64905C9.50205 10.604 9.36092 10.55 9.254 10.4547C9.14711 10.3593 9.08272 10.2292 9.074 10.0906C9.06538 9.95187 9.11256 9.81477 9.20689 9.70819C9.30074 9.60224 9.43393 9.53339 9.57898 9.51643L9.64905 9.513ZM2.22652 3.59119C1.94217 3.59119 1.6689 3.69685 1.46783 3.88682C1.26677 4.0768 1.15494 4.33499 1.15494 4.60365V5.61611H14.8451V4.60365C14.8451 4.33499 14.732 4.0768 14.531 3.88682C14.3299 3.69697 14.0565 3.59119 13.7723 3.59119H2.22652Z" fill="#B07A1E"/>
</svg>
