<svg width="16" height="16" viewBox="0 0 16 16" fill="none" xmlns="http://www.w3.org/2000/svg">
<path d="M11.0889 1.90039C12.1976 1.90039 13.2191 2.34581 13.9629 3.15527C14.6976 3.95508 15.0996 5.0456 15.0996 6.22266C15.0996 7.43942 14.6467 8.54869 13.6885 9.70898C12.8344 10.7433 11.609 11.791 10.2012 12.9951C9.71929 13.4071 9.17362 13.8742 8.60742 14.3711C8.43954 14.5185 8.22349 14.5996 8 14.5996C7.77638 14.5996 7.56057 14.5188 7.39258 14.3711C6.82763 13.8753 6.28283 13.4094 5.80176 12.998L5.7998 12.9961L4.78027 12.1191C3.80157 11.268 2.95208 10.4846 2.31152 9.70898C1.35336 8.54863 0.900444 7.43939 0.900391 6.22266C0.900391 5.04559 1.30239 3.95508 2.03711 3.15527C2.78094 2.34577 3.8023 1.90039 4.91113 1.90039C5.74179 1.90042 6.50338 2.16385 7.17188 2.68262C7.47604 2.91874 7.7519 3.20407 8 3.53027C8.24816 3.20407 8.52384 2.91876 8.82812 2.68262C9.49661 2.16383 10.2582 1.90044 11.0889 1.90039ZM11.0889 2.92285C10.4895 2.9229 9.93952 3.11399 9.45215 3.49219C9.01624 3.83066 8.71037 4.26067 8.53027 4.56348C8.41786 4.75214 8.21929 4.86523 8 4.86523C7.78071 4.86523 7.58214 4.75214 7.46973 4.56348C7.28975 4.26069 6.98387 3.83066 6.54785 3.49219C6.06045 3.11397 5.51044 2.92288 4.91113 2.92285C4.14063 2.92285 3.43032 3.21224 2.89258 3.74023L2.78711 3.84863C2.22986 4.45525 1.91992 5.29752 1.91992 6.22266C1.91997 7.19235 2.27729 8.06438 3.09668 9.05664C3.89178 10.0195 5.07669 11.0337 6.45996 12.2168L6.46289 12.2188L6.46387 12.2197C6.92795 12.6166 7.45169 13.0654 7.99805 13.5439C8.54796 13.0641 9.07363 12.6147 9.53906 12.2168C10.9226 11.0334 12.1081 10.0197 12.9033 9.05664C13.7226 8.06435 14.08 7.19236 14.0801 6.22266C14.0801 5.29752 13.7701 4.45525 13.2129 3.84863C12.6645 3.25173 11.9106 2.92285 11.0889 2.92285Z" fill="#411825" stroke="#411825" stroke-width="0.2"/>
</svg>
