<svg width="30" height="30" viewBox="0 0 30 30" fill="none" xmlns="http://www.w3.org/2000/svg">
<path fill-rule="evenodd" clip-rule="evenodd" d="M15 5.1875C13.5112 5.1875 11.775 5.2225 10.0825 5.27L10.0138 5.2725C8.29125 5.32125 6.90125 5.36 5.80625 5.54125C4.665 5.73 3.7175 6.09125 2.96 6.87C2.2 7.65125 1.86875 8.6175 1.7125 9.77375C1.5625 10.8862 1.5625 12.2962 1.5625 14.0487V15.9537C1.5625 17.7037 1.5625 19.1137 1.7125 20.2275C1.8675 21.3837 2.2 22.35 2.96 23.1312C3.7175 23.9112 4.665 24.2712 5.80625 24.46C6.90125 24.6412 8.29125 24.68 10.0138 24.7288L10.0825 24.7312C11.7762 24.7787 13.5112 24.8137 15 24.8137C16.4888 24.8137 18.225 24.7787 19.9175 24.7312L19.9862 24.7288C21.7087 24.68 23.0987 24.6412 24.1937 24.46C25.335 24.2712 26.2825 23.91 27.04 23.1312C27.8 22.35 28.1325 21.3837 28.2875 20.2275C28.4375 19.115 28.4375 17.705 28.4375 15.9525V14.0475C28.4375 12.2962 28.4375 10.8862 28.2875 9.77375C28.1325 8.6175 27.8 7.65125 27.04 6.87C26.2825 6.09 25.335 5.73 24.1937 5.54125C23.0987 5.36 21.7087 5.32125 19.985 5.2725L19.9175 5.27C18.2788 5.22026 16.6395 5.19276 15 5.1875ZM13.59 18.3137C13.4474 18.3952 13.286 18.4377 13.1218 18.4372C12.9577 18.4366 12.7965 18.393 12.6545 18.3106C12.5125 18.2282 12.3946 18.11 12.3127 17.9677C12.2307 17.8255 12.1876 17.6642 12.1875 17.5V12.5C12.1876 12.3358 12.2307 12.1745 12.3127 12.0323C12.3946 11.89 12.5125 11.7718 12.6545 11.6894C12.7965 11.607 12.9577 11.5634 13.1218 11.5628C13.286 11.5623 13.4474 11.6048 13.59 11.6862L17.965 14.1862C18.1084 14.2683 18.2276 14.3867 18.3104 14.5296C18.3933 14.6725 18.437 14.8348 18.437 15C18.437 15.1652 18.3933 15.3275 18.3104 15.4704C18.2276 15.6133 18.1084 15.7317 17.965 15.8137L13.59 18.3137Z" fill="#F2F0EC"/>
</svg>
